0
SECTION
2
HEADER
9
$ANGDIR
70
1
9
$AUNITS
70
0
9
$PROJECTNAME
1
PMW3360MouseSensor
9
$TDCREATE
40
2458846.88048223
9
$INSUNITS
70
4
0
ENDSEC
0
SECTION
2
ENTITIES
0
POLYLINE
66
1
8
outline
10
0.0
20
0.0
30
0.0
70
1
0
VERTEX
8
0
10
0
20
0
30
0
0
VERTEX
8
0
10
34.6
20
0
30
0
0
VERTEX
8
0
10
34.6
20
24
30
0
0
VERTEX
8
0
10
0
20
24
30
0
0
VERTEX
8
0
10
0
20
0
30
0
0
SEQEND
0
POLYLINE
66
1
8
holes
10
0.0
20
0.0
30
0.0
70
1
0
VERTEX
8
0
10
8.523
20
8.799000000000001
30
0
0
VERTEX
8
0
10
25.783
20
8.799000000000001
30
0
0
VERTEX
8
0
10
25.783
20
17.145
30
0
0
VERTEX
8
0
10
8.523
20
17.145
30
0
0
VERTEX
8
0
10
8.523
20
8.799000000000001
30
0
0
SEQEND
0
POLYLINE
66
1
8
holes
10
0.0
20
0.0
30
0.0
70
1
0
VERTEX
8
0
10
8.523
20
8.788400000000001
30
0
0
VERTEX
8
0
10
25.783
20
8.788400000000001
30
0
0
VERTEX
8
0
10
25.783
20
17.145
30
0
0
VERTEX
8
0
10
8.523
20
17.145
30
0
0
VERTEX
8
0
10
8.523
20
8.788400000000001
30
0
0
SEQEND
0
POLYLINE
66
1
8
holes
10
0.0
20
0.0
30
0.0
70
1
0
VERTEX
8
0
10
4.04
20
20.901428125000002
30
0
0
VERTEX
8
0
10
4.03235625
20
20.79455625
30
0
0
VERTEX
8
0
10
4.017109375
20
20.6885
30
0
0
VERTEX
8
0
10
3.99433125
20
20.583803125
30
0
0
VERTEX
8
0
10
3.9641468750000004
20
20.481
30
0
0
VERTEX
8
0
10
3.9267031250000004
20
20.380609375000002
30
0
0
VERTEX
8
0
10
3.8821937500000003
20
20.283146875
30
0
0
VERTEX
8
0
10
3.83084375
20
20.189106250000002
30
0
0
VERTEX
8
0
10
3.772915625
20
20.098971875
30
0
0
VERTEX
8
0
10
3.70870625
20
20.013196875000002
30
0
0
VERTEX
8
0
10
3.638540625
20
19.932221875
30
0
0
VERTEX
8
0
10
3.5627781250000004
20
19.856459375
30
0
0
VERTEX
8
0
10
3.4818031250000003
20
19.786293750000002
30
0
0
VERTEX
8
0
10
3.396028125
20
19.722084375
30
0
0
VERTEX
8
0
10
3.30589375
20
19.66415625
30
0
0
VERTEX
8
0
10
3.211853125
20
19.612806250000002
30
0
0
VERTEX
8
0
10
3.114390625
20
19.568296875
30
0
0
VERTEX
8
0
10
3.0140000000000002
20
19.530853125
30
0
0
VERTEX
8
0
10
2.9111968750000004
20
19.500668750000003
30
0
0
VERTEX
8
0
10
2.8065
20
19.477890625
30
0
0
VERTEX
8
0
10
2.7004437500000003
20
19.46264375
30
0
0
VERTEX
8
0
10
2.5935718750000003
20
19.455000000000002
30
0
0
VERTEX
8
0
10
2.486428125
20
19.455000000000002
30
0
0
VERTEX
8
0
10
2.3795562500000003
20
19.46264375
30
0
0
VERTEX
8
0
10
2.2735000000000003
20
19.477890625
30
0
0
VERTEX
8
0
10
2.168803125
20
19.500668750000003
30
0
0
VERTEX
8
0
10
2.0660000000000003
20
19.530853125
30
0
0
VERTEX
8
0
10
1.965609375
20
19.568296875
30
0
0
VERTEX
8
0
10
1.868146875
20
19.612806250000002
30
0
0
VERTEX
8
0
10
1.77410625
20
19.66415625
30
0
0
VERTEX
8
0
10
1.6839718750000001
20
19.722084375
30
0
0
VERTEX
8
0
10
1.5981968750000002
20
19.786293750000002
30
0
0
VERTEX
8
0
10
1.5172218750000002
20
19.856459375
30
0
0
VERTEX
8
0
10
1.441459375
20
19.932221875
30
0
0
VERTEX
8
0
10
1.37129375
20
20.013196875000002
30
0
0
VERTEX
8
0
10
1.307084375
20
20.098971875
30
0
0
VERTEX
8
0
10
1.24915625
20
20.189106250000002
30
0
0
VERTEX
8
0
10
1.19780625
20
20.283146875
30
0
0
VERTEX
8
0
10
1.153296875
20
20.380609375000002
30
0
0
VERTEX
8
0
10
1.1158531250000001
20
20.481
30
0
0
VERTEX
8
0
10
1.08566875
20
20.583803125
30
0
0
VERTEX
8
0
10
1.062890625
20
20.6885
30
0
0
VERTEX
8
0
10
1.04764375
20
20.79455625
30
0
0
VERTEX
8
0
10
1.04
20
20.901428125000002
30
0
0
VERTEX
8
0
10
1.04
20
21.008571875
30
0
0
VERTEX
8
0
10
1.04764375
20
21.11544375
30
0
0
VERTEX
8
0
10
1.062890625
20
21.221500000000002
30
0
0
VERTEX
8
0
10
1.08566875
20
21.326196875
30
0
0
VERTEX
8
0
10
1.1158531250000001
20
21.429000000000002
30
0
0
VERTEX
8
0
10
1.153296875
20
21.529390625
30
0
0
VERTEX
8
0
10
1.19780625
20
21.626853125
30
0
0
VERTEX
8
0
10
1.24915625
20
21.720893750000002
30
0
0
VERTEX
8
0
10
1.307084375
20
21.811028125
30
0
0
VERTEX
8
0
10
1.37129375
20
21.896803125
30
0
0
VERTEX
8
0
10
1.441459375
20
21.977778125
30
0
0
VERTEX
8
0
10
1.5172218750000002
20
22.053540625
30
0
0
VERTEX
8
0
10
1.5981968750000002
20
22.12370625
30
0
0
VERTEX
8
0
10
1.6839718750000001
20
22.187915625000002
30
0
0
VERTEX
8
0
10
1.77410625
20
22.245843750000002
30
0
0
VERTEX
8
0
10
1.868146875
20
22.29719375
30
0
0
VERTEX
8
0
10
1.965609375
20
22.341703125000002
30
0
0
VERTEX
8
0
10
2.0660000000000003
20
22.379146875
30
0
0
VERTEX
8
0
10
2.168803125
20
22.40933125
30
0
0
VERTEX
8
0
10
2.2735000000000003
20
22.432109375
30
0
0
VERTEX
8
0
10
2.3795562500000003
20
22.447356250000002
30
0
0
VERTEX
8
0
10
2.486428125
20
22.455000000000002
30
0
0
VERTEX
8
0
10
2.5935718750000003
20
22.455000000000002
30
0
0
VERTEX
8
0
10
2.7004437500000003
20
22.447356250000002
30
0
0
VERTEX
8
0
10
2.8065
20
22.432109375
30
0
0
VERTEX
8
0
10
2.9111968750000004
20
22.40933125
30
0
0
VERTEX
8
0
10
3.0140000000000002
20
22.379146875
30
0
0
VERTEX
8
0
10
3.114390625
20
22.341703125000002
30
0
0
VERTEX
8
0
10
3.211853125
20
22.29719375
30
0
0
VERTEX
8
0
10
3.30589375
20
22.245843750000002
30
0
0
VERTEX
8
0
10
3.396028125
20
22.187915625000002
30
0
0
VERTEX
8
0
10
3.4818031250000003
20
22.12370625
30
0
0
VERTEX
8
0
10
3.5627781250000004
20
22.053540625
30
0
0
VERTEX
8
0
10
3.638540625
20
21.977778125
30
0
0
VERTEX
8
0
10
3.70870625
20
21.896803125
30
0
0
VERTEX
8
0
10
3.772915625
20
21.811028125
30
0
0
VERTEX
8
0
10
3.83084375
20
21.720893750000002
30
0
0
VERTEX
8
0
10
3.8821937500000003
20
21.626853125
30
0
0
VERTEX
8
0
10
3.9267031250000004
20
21.529390625
30
0
0
VERTEX
8
0
10
3.9641468750000004
20
21.429000000000002
30
0
0
VERTEX
8
0
10
3.99433125
20
21.326196875
30
0
0
VERTEX
8
0
10
4.017109375
20
21.221500000000002
30
0
0
VERTEX
8
0
10
4.03235625
20
21.11544375
30
0
0
VERTEX
8
0
10
4.04
20
21.008571875
30
0
0
VERTEX
8
0
10
4.04
20
20.901428125000002
30
0
0
SEQEND
0
POLYLINE
66
1
8
holes
10
0.0
20
0.0
30
0.0
70
1
0
VERTEX
8
0
10
33.25
20
3.121428125
30
0
0
VERTEX
8
0
10
33.24235625
20
3.01455625
30
0
0
VERTEX
8
0
10
33.227109375000005
20
2.9085
30
0
0
VERTEX
8
0
10
33.20433125
20
2.803803125
30
0
0
VERTEX
8
0
10
33.174146875
20
2.701
30
0
0
VERTEX
8
0
10
33.136703125000004
20
2.6006093750000003
30
0
0
VERTEX
8
0
10
33.09219375
20
2.503146875
30
0
0
VERTEX
8
0
10
33.04084375
20
2.4091062500000002
30
0
0
VERTEX
8
0
10
32.982915625000004
20
2.318971875
30
0
0
VERTEX
8
0
10
32.91870625
20
2.233196875
30
0
0
VERTEX
8
0
10
32.848540625
20
2.152221875
30
0
0
VERTEX
8
0
10
32.772778125
20
2.076459375
30
0
0
VERTEX
8
0
10
32.691803125
20
2.00629375
30
0
0
VERTEX
8
0
10
32.606028125
20
1.942084375
30
0
0
VERTEX
8
0
10
32.515893750000004
20
1.8841562500000002
30
0
0
VERTEX
8
0
10
32.421853125
20
1.8328062500000002
30
0
0
VERTEX
8
0
10
32.324390625
20
1.7882968750000001
30
0
0
VERTEX
8
0
10
32.224000000000004
20
1.7508531250000001
30
0
0
VERTEX
8
0
10
32.121196875
20
1.7206687500000002
30
0
0
VERTEX
8
0
10
32.0165
20
1.697890625
30
0
0
VERTEX
8
0
10
31.910443750000002
20
1.68264375
30
0
0
VERTEX
8
0
10
31.803571875000003
20
1.675
30
0
0
VERTEX
8
0
10
31.696428125
20
1.675
30
0
0
VERTEX
8
0
10
31.58955625
20
1.68264375
30
0
0
VERTEX
8
0
10
31.483500000000003
20
1.697890625
30
0
0
VERTEX
8
0
10
31.378803125
20
1.7206687500000002
30
0
0
VERTEX
8
0
10
31.276
20
1.7508531250000001
30
0
0
VERTEX
8
0
10
31.175609375
20
1.7882968750000001
30
0
0
VERTEX
8
0
10
31.078146875
20
1.8328062500000002
30
0
0
VERTEX
8
0
10
30.98410625
20
1.8841562500000002
30
0
0
VERTEX
8
0
10
30.893971875000002
20
1.942084375
30
0
0
VERTEX
8
0
10
30.808196875
20
2.00629375
30
0
0
VERTEX
8
0
10
30.727221875
20
2.076459375
30
0
0
VERTEX
8
0
10
30.651459375
20
2.152221875
30
0
0
VERTEX
8
0
10
30.58129375
20
2.233196875
30
0
0
VERTEX
8
0
10
30.517084375000003
20
2.318971875
30
0
0
VERTEX
8
0
10
30.459156250000003
20
2.4091062500000002
30
0
0
VERTEX
8
0
10
30.40780625
20
2.503146875
30
0
0
VERTEX
8
0
10
30.363296875000003
20
2.6006093750000003
30
0
0
VERTEX
8
0
10
30.325853125000002
20
2.701
30
0
0
VERTEX
8
0
10
30.29566875
20
2.803803125
30
0
0
VERTEX
8
0
10
30.272890625000002
20
2.9085
30
0
0
VERTEX
8
0
10
30.25764375
20
3.01455625
30
0
0
VERTEX
8
0
10
30.25
20
3.121428125
30
0
0
VERTEX
8
0
10
30.25
20
3.228571875
30
0
0
VERTEX
8
0
10
30.25764375
20
3.33544375
30
0
0
VERTEX
8
0
10
30.272890625000002
20
3.4415
30
0
0
VERTEX
8
0
10
30.29566875
20
3.546196875
30
0
0
VERTEX
8
0
10
30.325853125000002
20
3.649
30
0
0
VERTEX
8
0
10
30.363296875000003
20
3.749390625
30
0
0
VERTEX
8
0
10
30.40780625
20
3.846853125
30
0
0
VERTEX
8
0
10
30.459156250000003
20
3.9408937500000003
30
0
0
VERTEX
8
0
10
30.517084375000003
20
4.031028125000001
30
0
0
VERTEX
8
0
10
30.58129375
20
4.116803125000001
30
0
0
VERTEX
8
0
10
30.651459375
20
4.197778125
30
0
0
VERTEX
8
0
10
30.727221875
20
4.273540625
30
0
0
VERTEX
8
0
10
30.808196875
20
4.34370625
30
0
0
VERTEX
8
0
10
30.893971875000002
20
4.407915625
30
0
0
VERTEX
8
0
10
30.98410625
20
4.46584375
30
0
0
VERTEX
8
0
10
31.078146875
20
4.517193750000001
30
0
0
VERTEX
8
0
10
31.175609375
20
4.561703125
30
0
0
VERTEX
8
0
10
31.276
20
4.599146875000001
30
0
0
VERTEX
8
0
10
31.378803125
20
4.62933125
30
0
0
VERTEX
8
0
10
31.483500000000003
20
4.652109375
30
0
0
VERTEX
8
0
10
31.58955625
20
4.66735625
30
0
0
VERTEX
8
0
10
31.696428125
20
4.675
30
0
0
VERTEX
8
0
10
31.803571875000003
20
4.675
30
0
0
VERTEX
8
0
10
31.910443750000002
20
4.66735625
30
0
0
VERTEX
8
0
10
32.0165
20
4.652109375
30
0
0
VERTEX
8
0
10
32.121196875
20
4.62933125
30
0
0
VERTEX
8
0
10
32.224000000000004
20
4.599146875000001
30
0
0
VERTEX
8
0
10
32.324390625
20
4.561703125
30
0
0
VERTEX
8
0
10
32.421853125
20
4.517193750000001
30
0
0
VERTEX
8
0
10
32.515893750000004
20
4.46584375
30
0
0
VERTEX
8
0
10
32.606028125
20
4.407915625
30
0
0
VERTEX
8
0
10
32.691803125
20
4.34370625
30
0
0
VERTEX
8
0
10
32.772778125
20
4.273540625
30
0
0
VERTEX
8
0
10
32.848540625
20
4.197778125
30
0
0
VERTEX
8
0
10
32.91870625
20
4.116803125000001
30
0
0
VERTEX
8
0
10
32.982915625000004
20
4.031028125000001
30
0
0
VERTEX
8
0
10
33.04084375
20
3.9408937500000003
30
0
0
VERTEX
8
0
10
33.09219375
20
3.846853125
30
0
0
VERTEX
8
0
10
33.136703125000004
20
3.749390625
30
0
0
VERTEX
8
0
10
33.174146875
20
3.649
30
0
0
VERTEX
8
0
10
33.20433125
20
3.546196875
30
0
0
VERTEX
8
0
10
33.227109375000005
20
3.4415
30
0
0
VERTEX
8
0
10
33.24235625
20
3.33544375
30
0
0
VERTEX
8
0
10
33.25
20
3.228571875
30
0
0
VERTEX
8
0
10
33.25
20
3.121428125
30
0
0
SEQEND
0
POLYLINE
66
1
8
holes
10
0.0
20
0.0
30
0.0
70
1
0
VERTEX
8
0
10
33.25
20
20.901428125000002
30
0
0
VERTEX
8
0
10
33.24235625
20
20.79455625
30
0
0
VERTEX
8
0
10
33.227109375000005
20
20.6885
30
0
0
VERTEX
8
0
10
33.20433125
20
20.583803125
30
0
0
VERTEX
8
0
10
33.174146875
20
20.481
30
0
0
VERTEX
8
0
10
33.136703125000004
20
20.380609375000002
30
0
0
VERTEX
8
0
10
33.09219375
20
20.283146875
30
0
0
VERTEX
8
0
10
33.04084375
20
20.189106250000002
30
0
0
VERTEX
8
0
10
32.982915625000004
20
20.098971875
30
0
0
VERTEX
8
0
10
32.91870625
20
20.013196875000002
30
0
0
VERTEX
8
0
10
32.848540625
20
19.932221875
30
0
0
VERTEX
8
0
10
32.772778125
20
19.856459375
30
0
0
VERTEX
8
0
10
32.691803125
20
19.786293750000002
30
0
0
VERTEX
8
0
10
32.606028125
20
19.722084375
30
0
0
VERTEX
8
0
10
32.515893750000004
20
19.66415625
30
0
0
VERTEX
8
0
10
32.421853125
20
19.612806250000002
30
0
0
VERTEX
8
0
10
32.324390625
20
19.568296875
30
0
0
VERTEX
8
0
10
32.224000000000004
20
19.530853125
30
0
0
VERTEX
8
0
10
32.121196875
20
19.500668750000003
30
0
0
VERTEX
8
0
10
32.0165
20
19.477890625
30
0
0
VERTEX
8
0
10
31.910443750000002
20
19.46264375
30
0
0
VERTEX
8
0
10
31.803571875000003
20
19.455000000000002
30
0
0
VERTEX
8
0
10
31.696428125
20
19.455000000000002
30
0
0
VERTEX
8
0
10
31.58955625
20
19.46264375
30
0
0
VERTEX
8
0
10
31.483500000000003
20
19.477890625
30
0
0
VERTEX
8
0
10
31.378803125
20
19.500668750000003
30
0
0
VERTEX
8
0
10
31.276
20
19.530853125
30
0
0
VERTEX
8
0
10
31.175609375
20
19.568296875
30
0
0
VERTEX
8
0
10
31.078146875
20
19.612806250000002
30
0
0
VERTEX
8
0
10
30.98410625
20
19.66415625
30
0
0
VERTEX
8
0
10
30.893971875000002
20
19.722084375
30
0
0
VERTEX
8
0
10
30.808196875
20
19.786293750000002
30
0
0
VERTEX
8
0
10
30.727221875
20
19.856459375
30
0
0
VERTEX
8
0
10
30.651459375
20
19.932221875
30
0
0
VERTEX
8
0
10
30.58129375
20
20.013196875000002
30
0
0
VERTEX
8
0
10
30.517084375000003
20
20.098971875
30
0
0
VERTEX
8
0
10
30.459156250000003
20
20.189106250000002
30
0
0
VERTEX
8
0
10
30.40780625
20
20.283146875
30
0
0
VERTEX
8
0
10
30.363296875000003
20
20.380609375000002
30
0
0
VERTEX
8
0
10
30.325853125000002
20
20.481
30
0
0
VERTEX
8
0
10
30.29566875
20
20.583803125
30
0
0
VERTEX
8
0
10
30.272890625000002
20
20.6885
30
0
0
VERTEX
8
0
10
30.25764375
20
20.79455625
30
0
0
VERTEX
8
0
10
30.25
20
20.901428125000002
30
0
0
VERTEX
8
0
10
30.25
20
21.008571875
30
0
0
VERTEX
8
0
10
30.25764375
20
21.11544375
30
0
0
VERTEX
8
0
10
30.272890625000002
20
21.221500000000002
30
0
0
VERTEX
8
0
10
30.29566875
20
21.326196875
30
0
0
VERTEX
8
0
10
30.325853125000002
20
21.429000000000002
30
0
0
VERTEX
8
0
10
30.363296875000003
20
21.529390625
30
0
0
VERTEX
8
0
10
30.40780625
20
21.626853125
30
0
0
VERTEX
8
0
10
30.459156250000003
20
21.720893750000002
30
0
0
VERTEX
8
0
10
30.517084375000003
20
21.811028125
30
0
0
VERTEX
8
0
10
30.58129375
20
21.896803125
30
0
0
VERTEX
8
0
10
30.651459375
20
21.977778125
30
0
0
VERTEX
8
0
10
30.727221875
20
22.053540625
30
0
0
VERTEX
8
0
10
30.808196875
20
22.12370625
30
0
0
VERTEX
8
0
10
30.893971875000002
20
22.187915625000002
30
0
0
VERTEX
8
0
10
30.98410625
20
22.245843750000002
30
0
0
VERTEX
8
0
10
31.078146875
20
22.29719375
30
0
0
VERTEX
8
0
10
31.175609375
20
22.341703125000002
30
0
0
VERTEX
8
0
10
31.276
20
22.379146875
30
0
0
VERTEX
8
0
10
31.378803125
20
22.40933125
30
0
0
VERTEX
8
0
10
31.483500000000003
20
22.432109375
30
0
0
VERTEX
8
0
10
31.58955625
20
22.447356250000002
30
0
0
VERTEX
8
0
10
31.696428125
20
22.455000000000002
30
0
0
VERTEX
8
0
10
31.803571875000003
20
22.455000000000002
30
0
0
VERTEX
8
0
10
31.910443750000002
20
22.447356250000002
30
0
0
VERTEX
8
0
10
32.0165
20
22.432109375
30
0
0
VERTEX
8
0
10
32.121196875
20
22.40933125
30
0
0
VERTEX
8
0
10
32.224000000000004
20
22.379146875
30
0
0
VERTEX
8
0
10
32.324390625
20
22.341703125000002
30
0
0
VERTEX
8
0
10
32.421853125
20
22.29719375
30
0
0
VERTEX
8
0
10
32.515893750000004
20
22.245843750000002
30
0
0
VERTEX
8
0
10
32.606028125
20
22.187915625000002
30
0
0
VERTEX
8
0
10
32.691803125
20
22.12370625
30
0
0
VERTEX
8
0
10
32.772778125
20
22.053540625
30
0
0
VERTEX
8
0
10
32.848540625
20
21.977778125
30
0
0
VERTEX
8
0
10
32.91870625
20
21.896803125
30
0
0
VERTEX
8
0
10
32.982915625000004
20
21.811028125
30
0
0
VERTEX
8
0
10
33.04084375
20
21.720893750000002
30
0
0
VERTEX
8
0
10
33.09219375
20
21.626853125
30
0
0
VERTEX
8
0
10
33.136703125000004
20
21.529390625
30
0
0
VERTEX
8
0
10
33.174146875
20
21.429000000000002
30
0
0
VERTEX
8
0
10
33.20433125
20
21.326196875
30
0
0
VERTEX
8
0
10
33.227109375000005
20
21.221500000000002
30
0
0
VERTEX
8
0
10
33.24235625
20
21.11544375
30
0
0
VERTEX
8
0
10
33.25
20
21.008571875
30
0
0
VERTEX
8
0
10
33.25
20
20.901428125000002
30
0
0
SEQEND
0
POLYLINE
66
1
8
1_copper
10
0.0
20
0.0
30
0.0
70
1
0
VERTEX
8
0
10
22.614
20
22.609
30
0
0
VERTEX
8
0
10
22.614
20
22.262190625000002
30
0
0
VERTEX
8
0
10
22.36
20
22.262190625000002
30
0
0
VERTEX
8
0
10
22.36
20
22.405800000000003
30
0
42
0.4142135623730951
0
VERTEX
8
0
10
22.2584
20
22.5074
30
0
0
VERTEX
8
0
10
21.429596875
20
22.5074
30
0
42
0.4142135623730951
0
VERTEX
8
0
10
21.327996875
20
22.405800000000003
30
0
0
VERTEX
8
0
10
21.327996875
20
22.262190625000002
30
0
0
VERTEX
8
0
10
21.074
20
22.262190625000002
30
0
0
VERTEX
8
0
10
21.074
20
22.609
30
0
0
VERTEX
8
0
10
20.074
20
22.609
30
0
0
VERTEX
8
0
10
20.074
20
21.509
30
0
0
VERTEX
8
0
10
21.074
20
21.509
30
0
0
VERTEX
8
0
10
21.074
20
21.855803125
30
0
0
VERTEX
8
0
10
21.327996875
20
21.855803125
30
0
0
VERTEX
8
0
10
21.327996875
20
21.59
30
0
42
0.4142135623730951
0
VERTEX
8
0
10
21.429596875
20
21.488400000000002
30
0
0
VERTEX
8
0
10
22.2584
20
21.488400000000002
30
0
42
0.4142135623730951
0
VERTEX
8
0
10
22.36
20
21.59
30
0
0
VERTEX
8
0
10
22.36
20
21.855803125
30
0
0
VERTEX
8
0
10
22.614
20
21.855803125
30
0
0
VERTEX
8
0
10
22.614
20
21.509
30
0
0
VERTEX
8
0
10
23.614
20
21.509
30
0
0
VERTEX
8
0
10
23.614
20
21.855803125
30
0
0
VERTEX
8
0
10
23.867996875000003
20
21.855803125
30
0
0
VERTEX
8
0
10
23.867996875000003
20
21.47555625
30
0
0
VERTEX
8
0
10
23.8506875
20
21.41095625
30
0
0
VERTEX
8
0
10
23.81724375
20
21.353034375
30
0
42
0.558836171867874
0
VERTEX
8
0
10
23.78096875
20
21.173075
30
0
0
VERTEX
8
0
10
23.918796875
20
21.03525
30
0
0
VERTEX
8
0
10
23.918796875
20
20.32
30
0
42
0.4142135623730951
0
VERTEX
8
0
10
24.020396875
20
20.218400000000003
30
0
0
VERTEX
8
0
10
25.400000000000002
20
20.218400000000003
30
0
42
0.4142135623730951
0
VERTEX
8
0
10
25.5016
20
20.32
30
0
0
VERTEX
8
0
10
25.5016
20
21.170634375000002
30
0
42
0.19891236737965798
0
VERTEX
8
0
10
25.471840625000002
20
21.242475000000002
30
0
0
VERTEX
8
0
10
24.236671875000003
20
22.477640625
30
0
42
0.19891236737965798
0
VERTEX
8
0
10
24.164831250000002
20
22.5074
30
0
0
VERTEX
8
0
10
23.969596875
20
22.5074
30
0
42
0.4142135623730951
0
VERTEX
8
0
10
23.867996875000003
20
22.405800000000003
30
0
0
VERTEX
8
0
10
23.867996875000003
20
22.262190625000002
30
0
0
VERTEX
8
0
10
23.614
20
22.262190625000002
30
0
0
VERTEX
8
0
10
23.614
20
22.609
30
0
0
SEQEND
0
POLYLINE
66
1
8
1_copper
10
0.0
20
0.0
30
0.0
70
1
0
VERTEX
8
0
10
2.294
20
10.749
30
0
0
VERTEX
8
0
10
2.294
20
9.649000000000001
30
0
0
VERTEX
8
0
10
3.294
20
9.649000000000001
30
0
0
VERTEX
8
0
10
3.294
20
10.046603125
30
0
0
VERTEX
8
0
10
3.5479968750000004
20
10.046603125
30
0
0
VERTEX
8
0
10
3.5479968750000004
20
9.615556250000001
30
0
0
VERTEX
8
0
10
3.529015625
20
9.544721875
30
0
42
0.4931453357944407
0
VERTEX
8
0
10
3.60261875
20
9.4488
30
0
0
VERTEX
8
0
10
3.7338
20
9.4488
30
0
0
VERTEX
8
0
10
3.7338
20
3.258415625
30
0
42
0.19891236737965798
0
VERTEX
8
0
10
3.75611875
20
3.204534375
30
0
0
VERTEX
8
0
10
4.1422187500000005
20
2.81843125
30
0
42
0.30334251367423254
0
VERTEX
8
0
10
4.225259375
20
2.8019125000000003
30
0
0
VERTEX
8
0
10
4.451431250000001
20
2.8955968750000003
30
0
0
VERTEX
8
0
10
4.946565625
20
2.8955968750000003
30
0
0
VERTEX
8
0
10
5.404009375
20
2.7061187500000004
30
0
0
VERTEX
8
0
10
5.75411875
20
2.356009375
30
0
0
VERTEX
8
0
10
5.943596875
20
1.898565625
30
0
0
VERTEX
8
0
10
5.943596875
20
1.75448125
30
0
42
0.8540842718840891
0
VERTEX
8
0
10
6.092268750000001
20
1.7309343750000001
30
0
0
VERTEX
8
0
10
6.1326656250000005
20
1.8552718750000001
30
0
0
VERTEX
8
0
10
6.2179625000000005
20
2.022678125
30
0
0
VERTEX
8
0
10
6.328421875
20
2.174709375
30
0
0
VERTEX
8
0
10
6.4612875
20
2.307575
30
0
0
VERTEX
8
0
10
6.61331875
20
2.418034375
30
0
0
VERTEX
8
0
10
6.780725
20
2.50333125
30
0
0
VERTEX
8
0
10
6.9594531250000005
20
2.5614000000000003
30
0
0
VERTEX
8
0
10
7.086600000000001
20
2.581540625
30
0
0
VERTEX
8
0
10
7.086600000000001
20
1.4732125
30
0
42
0.4142135623730951
0
VERTEX
8
0
10
7.162800000000001
20
1.3970125
30
0
0
VERTEX
8
0
10
7.315193750000001
20
1.3970125
30
0
42
0.4142135623730951
0
VERTEX
8
0
10
7.391393750000001
20
1.4732125
30
0
0
VERTEX
8
0
10
7.391393750000001
20
2.581540625
30
0
0
VERTEX
8
0
10
7.51854375
20
2.5614000000000003
30
0
0
VERTEX
8
0
10
7.697271875
20
2.50333125
30
0
0
VERTEX
8
0
10
7.864678125
20
2.418034375
30
0
0
VERTEX
8
0
10
8.016709375
20
2.307575
30
0
0
VERTEX
8
0
10
8.149575
20
2.174709375
30
0
0
VERTEX
8
0
10
8.260034375
20
2.022678125
30
0
0
VERTEX
8
0
10
8.345331250000001
20
1.85526875
30
0
0
VERTEX
8
0
10
8.385728125
20
1.7309281250000002
30
0
42
0.8541011356728186
0
VERTEX
8
0
10
8.5344
20
1.7544718750000001
30
0
0
VERTEX
8
0
10
8.5344
20
1.898565625
30
0
0
VERTEX
8
0
10
8.723878125
20
2.356009375
30
0
0
VERTEX
8
0
10
8.94388125
20
2.576009375
30
0
42
0.19891236737965798
0
VERTEX
8
0
10
8.9662
20
2.6298906250000003
30
0
0
VERTEX
8
0
10
8.9662
20
3.851575
30
0
42
0.19891236737965798
0
VERTEX
8
0
10
8.94388125
20
3.9054562500000003
30
0
0
VERTEX
8
0
10
5.779800000000001
20
7.069534375
30
0
0
VERTEX
8
0
10
5.779800000000001
20
9.318800000000001
30
0
42
0.4142135623730951
0
VERTEX
8
0
10
5.703600000000001
20
9.395
30
0
0
VERTEX
8
0
10
5.486390625
20
9.395
30
0
0
VERTEX
8
0
10
5.486390625
20
9.649000000000001
30
0
0
VERTEX
8
0
10
5.8340000000000005
20
9.649000000000001
30
0
0
VERTEX
8
0
10
5.8340000000000005
20
10.749
30
0
0
VERTEX
8
0
10
4.8340000000000005
20
10.749
30
0
0
VERTEX
8
0
10
4.8340000000000005
20
10.351390625
30
0
0
VERTEX
8
0
10
4.58
20
10.351390625
30
0
0
VERTEX
8
0
10
4.58
20
10.782440625000001
30
0
0
VERTEX
8
0
10
4.597309375
20
10.8470375
30
0
0
VERTEX
8
0
10
4.63075
20
10.904959375
30
0
0
VERTEX
8
0
10
4.6849875
20
10.959196875
30
0
42
0.4142135623730951
0
VERTEX
8
0
10
4.6849875
20
11.066959375
30
0
0
VERTEX
8
0
10
4.5292
20
11.222743750000001
30
0
0
VERTEX
8
0
10
4.5292
20
12.575253125000001
30
0
0
VERTEX
8
0
10
4.707743750000001
20
12.753796875
30
0
0
VERTEX
8
0
10
4.8260000000000005
20
12.753796875
30
0
42
0.4142135623730951
0
VERTEX
8
0
10
4.902200000000001
20
12.829996875
30
0
0
VERTEX
8
0
10
4.902200000000001
20
13.0937
30
0
42
0.4142135623730951
0
VERTEX
8
0
10
4.8260000000000005
20
13.1699
30
0
0
VERTEX
8
0
10
4.597390625
20
13.1699
30
0
0
VERTEX
8
0
10
4.597390625
20
13.423900000000001
30
0
0
VERTEX
8
0
10
5.1054
20
13.423900000000001
30
0
0
VERTEX
8
0
10
5.1054
20
14.4145
30
0
0
VERTEX
8
0
10
3.7846
20
14.4145
30
0
0
VERTEX
8
0
10
3.7846
20
14.0462
30
0
0
VERTEX
8
0
10
2.920996875
20
14.0462
30
0
42
0.4142135623730951
0
VERTEX
8
0
10
2.844796875
20
13.97
30
0
0
VERTEX
8
0
10
2.844796875
20
12.829996875
30
0
42
0.4142135623730951
0
VERTEX
8
0
10
2.920996875
20
12.753796875
30
0
0
VERTEX
8
0
10
3.4202531250000003
20
12.753796875
30
0
0
VERTEX
8
0
10
3.598796875
20
12.575253125000001
30
0
0
VERTEX
8
0
10
3.598796875
20
11.222743750000001
30
0
0
VERTEX
8
0
10
3.4430093750000004
20
11.066959375
30
0
42
0.4142135623730951
0
VERTEX
8
0
10
3.4430093750000004
20
10.959196875
30
0
0
VERTEX
8
0
10
3.497246875
20
10.904959375
30
0
0
VERTEX
8
0
10
3.5306875
20
10.8470375
30
0
0
VERTEX
8
0
10
3.5479968750000004
20
10.782440625000001
30
0
0
VERTEX
8
0
10
3.5479968750000004
20
10.351390625
30
0
0
VERTEX
8
0
10
3.294
20
10.351390625
30
0
0
VERTEX
8
0
10
3.294
20
10.749
30
0
0
SEQEND
0
POLYLINE
66
1
8
1_copper
10
0.0
20
0.0
30
0.0
70
1
0
VERTEX
8
0
10
3.75115625
20
13.1699
30
0
0
VERTEX
8
0
10
3.6865593750000003
20
13.187209375
30
0
0
VERTEX
8
0
10
3.6286375
20
13.220650000000001
30
0
0
VERTEX
8
0
10
3.58135
20
13.2679375
30
0
0
VERTEX
8
0
10
3.547909375
20
13.325859375
30
0
0
VERTEX
8
0
10
3.5306
20
13.390456250000002
30
0
0
VERTEX
8
0
10
3.5306
20
13.766803125000001
30
0
0
VERTEX
8
0
10
3.7846
20
13.766803125000001
30
0
0
VERTEX
8
0
10
3.7846
20
13.423900000000001
30
0
0
VERTEX
8
0
10
4.292603125
20
13.423900000000001
30
0
0
VERTEX
8
0
10
4.292603125
20
13.1699
30
0
0
SEQEND
0
POLYLINE
66
1
8
1_copper
10
0.0
20
0.0
30
0.0
70
1
0
VERTEX
8
0
10
4.8005562500000005
20
9.395
30
0
0
VERTEX
8
0
10
4.735959375
20
9.412309375000001
30
0
0
VERTEX
8
0
10
4.6780375
20
9.44575
30
0
0
VERTEX
8
0
10
4.63075
20
9.4930375
30
0
0
VERTEX
8
0
10
4.597309375
20
9.550959375
30
0
0
VERTEX
8
0
10
4.58
20
9.615556250000001
30
0
0
VERTEX
8
0
10
4.58
20
10.046603125
30
0
0
VERTEX
8
0
10
4.8340000000000005
20
10.046603125
30
0
0
VERTEX
8
0
10
4.8340000000000005
20
9.649000000000001
30
0
0
VERTEX
8
0
10
5.1816031250000005
20
9.649000000000001
30
0
0
VERTEX
8
0
10
5.1816031250000005
20
9.395
30
0
0
SEQEND
0
POLYLINE
66
1
8
16_copper
10
0.0
20
0.0
30
0.0
70
1
0
VERTEX
8
0
10
3.8499375000000002
20
0.559209375
30
0
42
0.6547596356862736
0
VERTEX
8
0
10
3.9009875000000003
20
0.68888125
30
0
0
VERTEX
8
0
10
3.643878125
20
0.9459875000000001
30
0
0
VERTEX
8
0
10
3.4544
20
1.4034312500000001
30
0
0
VERTEX
8
0
10
3.4544
20
1.898565625
30
0
0
VERTEX
8
0
10
3.643878125
20
2.356009375
30
0
0
VERTEX
8
0
10
3.9939875000000002
20
2.7061187500000004
30
0
0
VERTEX
8
0
10
4.451431250000001
20
2.8955968750000003
30
0
0
VERTEX
8
0
10
4.946565625
20
2.8955968750000003
30
0
0
VERTEX
8
0
10
5.404009375
20
2.7061187500000004
30
0
0
VERTEX
8
0
10
5.75411875
20
2.356009375
30
0
0
VERTEX
8
0
10
5.943596875
20
1.898565625
30
0
0
VERTEX
8
0
10
5.943596875
20
1.754478125
30
0
42
0.8540842718840891
0
VERTEX
8
0
10
6.092268750000001
20
1.73093125
30
0
0
VERTEX
8
0
10
6.1326656250000005
20
1.8552718750000001
30
0
0
VERTEX
8
0
10
6.2179625000000005
20
2.022678125
30
0
0
VERTEX
8
0
10
6.328421875
20
2.174709375
30
0
0
VERTEX
8
0
10
6.4612875
20
2.307575
30
0
0
VERTEX
8
0
10
6.61331875
20
2.418034375
30
0
0
VERTEX
8
0
10
6.780725
20
2.50333125
30
0
0
VERTEX
8
0
10
6.9594531250000005
20
2.5614000000000003
30
0
0
VERTEX
8
0
10
7.086600000000001
20
2.581540625
30
0
0
VERTEX
8
0
10
7.086600000000001
20
1.4732125
30
0
42
0.4142135623730951
0
VERTEX
8
0
10
7.162800000000001
20
1.3970125
30
0
0
VERTEX
8
0
10
7.315193750000001
20
1.3970125
30
0
42
0.4142135623730951
0
VERTEX
8
0
10
7.391393750000001
20
1.4732125
30
0
0
VERTEX
8
0
10
7.391393750000001
20
2.581540625
30
0
0
VERTEX
8
0
10
7.51854375
20
2.5614000000000003
30
0
0
VERTEX
8
0
10
7.697271875
20
2.50333125
30
0
0
VERTEX
8
0
10
7.864678125
20
2.418034375
30
0
0
VERTEX
8
0
10
8.016709375
20
2.307575
30
0
0
VERTEX
8
0
10
8.149575
20
2.174709375
30
0
0
VERTEX
8
0
10
8.193353125
20
2.11445625
30
0
42
0.7265362480003063
0
VERTEX
8
0
10
8.3312
20
2.159246875
30
0
0
VERTEX
8
0
10
8.3312
20
8.409821875
30
0
42
0.19891236737965798
0
VERTEX
8
0
10
8.30888125
20
8.463703125
30
0
0
VERTEX
8
0
10
8.142000000000001
20
8.63058125
30
0
0
VERTEX
8
0
10
8.142000000000001
20
17.302815625
30
0
0
VERTEX
8
0
10
8.365181250000001
20
17.525996875
30
0
0
VERTEX
8
0
10
10.602803125000001
20
17.525996875
30
0
42
0.6681891241430082
0
VERTEX
8
0
10
10.656684375000001
20
17.65608125
30
0
0
VERTEX
8
0
10
10.5980875
20
17.714675
30
0
0
VERTEX
8
0
10
10.498628125
20
17.863525
30
0
0
VERTEX
8
0
10
10.430121875000001
20
18.028918750000003
30
0
0
VERTEX
8
0
10
10.407709375000001
20
18.1416
30
0
0
VERTEX
8
0
10
11.227784375
20
18.1416
30
0
42
0.4142135623730951
0
VERTEX
8
0
10
11.303984375
20
18.2178
30
0
0
VERTEX
8
0
10
11.303984375
20
18.2940125
30
0
0
VERTEX
8
0
10
11.38019375
20
18.2940125
30
0
42
0.4142135623730951
0
VERTEX
8
0
10
11.45639375
20
18.3702125
30
0
0
VERTEX
8
0
10
11.45639375
20
19.190290625
30
0
0
VERTEX
8
0
10
11.569078125
20
19.167875000000002
30
0
0
VERTEX
8
0
10
11.734471875
20
19.09936875
30
0
0
VERTEX
8
0
10
11.883331250000001
20
18.999903125
30
0
0
VERTEX
8
0
10
12.009903125000001
20
18.87333125
30
0
0
VERTEX
8
0
10
12.100709375000001
20
18.737428125
30
0
42
0.5993858538060083
0
VERTEX
8
0
10
12.234468750000001
20
18.750603125
30
0
0
VERTEX
8
0
10
12.270490625
20
18.837568750000003
30
0
0
VERTEX
8
0
10
12.540428125
20
19.10750625
30
0
0
VERTEX
8
0
10
12.729159375
20
19.185678125000003
30
0
42
0.3033508535501127
0
VERTEX
8
0
10
12.776200000000001
20
19.256078125000002
30
0
0
VERTEX
8
0
10
12.776200000000001
20
19.608800000000002
30
0
0
VERTEX
8
0
10
15.927587500000001
20
19.608800000000002
30
0
42
0.6681786379192989
0
VERTEX
8
0
10
15.981468750000001
20
19.738881250000002
30
0
0
VERTEX
8
0
10
14.965465625
20
20.75488125
30
0
42
0.19891236737965798
0
VERTEX
8
0
10
14.911584375
20
20.7772
30
0
0
VERTEX
8
0
10
11.686509375
20
20.7772
30
0
42
0.19891236737965798
0
VERTEX
8
0
10
11.632628125
20
20.75488125
30
0
0
VERTEX
8
0
10
11.464662500000001
20
20.586915625
30
0
0
VERTEX
8
0
10
11.1949625
20
20.4752
30
0
0
VERTEX
8
0
10
10.903034375
20
20.4752
30
0
0
VERTEX
8
0
10
10.633334375
20
20.586915625
30
0
0
VERTEX
8
0
10
10.426915625000001
20
20.793334375
30
0
0
VERTEX
8
0
10
10.3152
20
21.063034375
30
0
0
VERTEX
8
0
10
10.3152
20
21.354962500000003
30
0
0
VERTEX
8
0
10
10.426915625000001
20
21.6246625
30
0
0
VERTEX
8
0
10
10.633334375
20
21.83108125
30
0
0
VERTEX
8
0
10
10.903034375
20
21.942796875000003
30
0
0
VERTEX
8
0
10
11.1949625
20
21.942796875000003
30
0
0
VERTEX
8
0
10
11.464662500000001
20
21.83108125
30
0
0
VERTEX
8
0
10
11.632628125
20
21.663115625
30
0
42
0.19891236737965798
0
VERTEX
8
0
10
11.686509375
20
21.640796875
30
0
0
VERTEX
8
0
10
15.300862500000001
20
21.640796875
30
0
0
VERTEX
8
0
10
17.310540625
20
19.631118750000002
30
0
42
0.19891236737965798
0
VERTEX
8
0
10
17.364421875
20
19.608800000000002
30
0
0
VERTEX
8
0
10
25.400000000000002
20
19.608800000000002
30
0
42
0.4142135623730951
0
VERTEX
8
0
10
25.476200000000002
20
19.685000000000002
30
0
0
VERTEX
8
0
10
25.476200000000002
20
23.495
30
0
42
0.4142135623730951
0
VERTEX
8
0
10
25.400000000000002
20
23.5712
30
0
0
VERTEX
8
0
10
4.889706250000001
20
23.5712
30
0
42
0.683230390744418
0
VERTEX
8
0
10
4.838096875000001
20
23.4389375
30
0
0
VERTEX
8
0
10
5.2473375
20
23.062203125
30
0
0
VERTEX
8
0
10
5.784859375
20
22.06895625
30
0
0
VERTEX
8
0
10
5.9707437500000005
20
20.955000000000002
30
0
0
VERTEX
8
0
10
5.784859375
20
19.841040625
30
0
0
VERTEX
8
0
10
5.247334375
20
18.847787500000003
30
0
0
VERTEX
8
0
10
4.416440625
20
18.08289375
30
0
0
VERTEX
8
0
10
3.382203125
20
17.629234375
30
0
0
VERTEX
8
0
10
3.16870625
20
17.61154375
30
0
42
0.3901969521394713
0
VERTEX
8
0
10
3.0988
20
17.535603125
30
0
0
VERTEX
8
0
10
3.0988
20
0.635
30
0
42
0.4142135623730951
0
VERTEX
8
0
10
3.1750000000000003
20
0.5588000000000001
30
0
0
VERTEX
8
0
10
3.8471062500000004
20
0.5588000000000001
30
0
0
SEQEND
0
POLYLINE
66
1
8
16_copper
10
0.0
20
0.0
30
0.0
70
1
0
VERTEX
8
0
10
10.40770625
20
18.446393750000002
30
0
0
VERTEX
8
0
10
10.430121875000001
20
18.559078125
30
0
0
VERTEX
8
0
10
10.498628125
20
18.724471875000003
30
0
0
VERTEX
8
0
10
10.59809375
20
18.87333125
30
0
0
VERTEX
8
0
10
10.724665625
20
18.999903125
30
0
0
VERTEX
8
0
10
10.873525
20
19.09936875
30
0
0
VERTEX
8
0
10
11.03891875
20
19.167875000000002
30
0
0
VERTEX
8
0
10
11.1516
20
19.1902875
30
0
0
VERTEX
8
0
10
11.1516
20
18.446393750000002
30
0
0
SEQEND
0
POLYLINE
66
1
8
1_copper
10
0.0
20
0.0
30
0.0
70
1
0
VERTEX
8
0
10
5.8340000000000005
20
12.449
30
0
0
VERTEX
8
0
10
5.461
20
12.449
30
0
0
VERTEX
8
0
10
5.461
20
13.13291875
30
0
0
VERTEX
8
0
10
5.525403125
20
13.197321875
30
0
42
0.19891236737965798
0
VERTEX
8
0
10
5.562600000000001
20
13.287125000000001
30
0
0
VERTEX
8
0
10
5.562600000000001
20
14.808200000000001
30
0
42
0.19891236737965798
0
VERTEX
8
0
10
5.525403125
20
14.898003125
30
0
0
VERTEX
8
0
10
5.1054
20
15.318006250000002
30
0
0
VERTEX
8
0
10
5.1054
20
16.2941
30
0
0
VERTEX
8
0
10
4.572
20
16.2941
30
0
0
VERTEX
8
0
10
4.572
20
16.45739375
30
0
0
VERTEX
8
0
10
9.19660625
20
21.082
30
0
0
VERTEX
8
0
10
10.638896875
20
21.082
30
0
42
0.9493229116822237
0
VERTEX
8
0
10
11.470659375
20
21.292871875
30
0
0
VERTEX
8
0
10
11.456103125
20
21.347193750000002
30
0
42
0.7268310812031208
0
VERTEX
8
0
10
10.638896875
20
21.336000000000002
30
0
0
VERTEX
8
0
10
9.144
20
21.336000000000002
30
0
42
0.19891236737965798
0
VERTEX
8
0
10
9.054196875
20
21.298803125000003
30
0
0
VERTEX
8
0
10
4.355196875
20
16.599803125
30
0
42
0.19891236737965798
0
VERTEX
8
0
10
4.3180000000000005
20
16.51
30
0
0
VERTEX
8
0
10
4.3180000000000005
20
16.2941
30
0
0
VERTEX
8
0
10
3.7846
20
16.2941
30
0
0
VERTEX
8
0
10
3.7846
20
15.303500000000001
30
0
0
VERTEX
8
0
10
4.760693750000001
20
15.303500000000001
30
0
0
VERTEX
8
0
10
5.3086
20
14.755593750000001
30
0
0
VERTEX
8
0
10
5.3086
20
13.33973125
30
0
0
VERTEX
8
0
10
5.244196875
20
13.275328125000001
30
0
42
0.19891236737965798
0
VERTEX
8
0
10
5.207
20
13.185525
30
0
0
VERTEX
8
0
10
5.207
20
12.449
30
0
0
VERTEX
8
0
10
4.8340000000000005
20
12.449
30
0
0
VERTEX
8
0
10
4.8340000000000005
20
11.349
30
0
0
VERTEX
8
0
10
5.8340000000000005
20
11.349
30
0
0
SEQEND
0
POLYLINE
66
1
8
1_copper
10
0.0
20
0.0
30
0.0
70
1
0
VERTEX
8
0
10
18.464475
20
18.173621875000002
30
0
42
0.5566825818421984
0
VERTEX
8
0
10
18.513803125000003
20
18.383803125
30
0
0
VERTEX
8
0
10
18.161
20
18.73660625
30
0
0
VERTEX
8
0
10
18.161
20
19.809
30
0
0
VERTEX
8
0
10
18.534000000000002
20
19.809
30
0
0
VERTEX
8
0
10
18.534000000000002
20
20.909000000000002
30
0
0
VERTEX
8
0
10
17.534000000000002
20
20.909000000000002
30
0
0
VERTEX
8
0
10
17.534000000000002
20
19.809
30
0
0
VERTEX
8
0
10
17.907
20
19.809
30
0
0
VERTEX
8
0
10
17.907
20
18.684
30
0
42
0.19891236737965798
0
VERTEX
8
0
10
17.944196875
20
18.594196875
30
0
0
VERTEX
8
0
10
18.334196875
20
18.204196875
30
0
0
VERTEX
8
0
10
18.356168750000002
20
18.18663125
30
0
0
VERTEX
8
0
10
18.38146875
20
18.174334375
30
0
0
VERTEX
8
0
10
18.408853125
20
18.16790625
30
0
0
VERTEX
8
0
10
18.436984375
20
18.167665625
30
0
0
SEQEND
0
POLYLINE
66
1
8
16_copper
10
0.0
20
0.0
30
0.0
70
1
0
VERTEX
8
0
10
18.451956250000002
20
18.170115625
30
0
42
0.8947582755259743
0
VERTEX
8
0
10
18.424
20
18.421
30
0
0
VERTEX
8
0
10
18.0896125
20
18.421
30
0
0
VERTEX
8
0
10
15.211809375000001
20
21.298803125000003
30
0
42
0.19891236737965798
0
VERTEX
8
0
10
15.12200625
20
21.336000000000002
30
0
0
VERTEX
8
0
10
11.459103125
20
21.336000000000002
30
0
42
0.9493229116822237
0
VERTEX
8
0
10
10.627340625
20
21.125128125
30
0
0
VERTEX
8
0
10
10.641896875
20
21.07080625
30
0
42
0.7268310812031208
0
VERTEX
8
0
10
11.459103125
20
21.082
30
0
0
VERTEX
8
0
10
15.0694
20
21.082
30
0
0
VERTEX
8
0
10
17.947203125
20
18.204196875
30
0
42
0.19891236737965798
0
VERTEX
8
0
10
18.03700625
20
18.167
30
0
0
VERTEX
8
0
10
18.424
20
18.167
30
0
0
SEQEND
0
POLYLINE
66
1
8
1_copper
10
0.0
20
0.0
30
0.0
70
1
0
VERTEX
8
0
10
4.7394750000000005
20
1.530621875
30
0
42
0.5566825818421984
0
VERTEX
8
0
10
4.788803125
20
1.740803125
30
0
0
VERTEX
8
0
10
2.0908
20
4.43880625
30
0
0
VERTEX
8
0
10
2.0908
20
10.83316875
30
0
0
VERTEX
8
0
10
2.60663125
20
11.349
30
0
0
VERTEX
8
0
10
3.294
20
11.349
30
0
0
VERTEX
8
0
10
3.294
20
12.449
30
0
0
VERTEX
8
0
10
2.54
20
12.449
30
0
0
VERTEX
8
0
10
2.54
20
14.363700000000001
30
0
0
VERTEX
8
0
10
3.0734000000000004
20
14.363700000000001
30
0
0
VERTEX
8
0
10
3.0734000000000004
20
15.3543
30
0
0
VERTEX
8
0
10
2.54
20
15.3543
30
0
0
VERTEX
8
0
10
2.54
20
15.695393750000001
30
0
0
VERTEX
8
0
10
8.77660625
20
21.932000000000002
30
0
0
VERTEX
8
0
10
12.454
20
21.932000000000002
30
0
0
VERTEX
8
0
10
12.454
20
21.509
30
0
0
VERTEX
8
0
10
13.454
20
21.509
30
0
0
VERTEX
8
0
10
13.454
20
21.932000000000002
30
0
0
VERTEX
8
0
10
13.74139375
20
21.932000000000002
30
0
0
VERTEX
8
0
10
14.994000000000002
20
20.679393750000003
30
0
0
VERTEX
8
0
10
14.994000000000002
20
19.809
30
0
0
VERTEX
8
0
10
15.864393750000001
20
19.809
30
0
0
VERTEX
8
0
10
16.517
20
19.15639375
30
0
0
VERTEX
8
0
10
16.517
20
18.294
30
0
42
0.8794486188809765
0
VERTEX
8
0
10
16.766853125
20
18.261815625
30
0
0
VERTEX
8
0
10
16.771
20
18.294
30
0
0
VERTEX
8
0
10
16.771
20
19.209
30
0
42
0.19891236737965798
0
VERTEX
8
0
10
16.733803125
20
19.298803125
30
0
0
VERTEX
8
0
10
15.994000000000002
20
20.03860625
30
0
0
VERTEX
8
0
10
15.994000000000002
20
20.909000000000002
30
0
0
VERTEX
8
0
10
15.12360625
20
20.909000000000002
30
0
0
VERTEX
8
0
10
13.883803125
20
22.148803125
30
0
42
0.19891236737965798
0
VERTEX
8
0
10
13.794
20
22.186
30
0
0
VERTEX
8
0
10
13.454
20
22.186
30
0
0
VERTEX
8
0
10
13.454
20
22.609
30
0
0
VERTEX
8
0
10
12.454
20
22.609
30
0
0
VERTEX
8
0
10
12.454
20
22.186
30
0
0
VERTEX
8
0
10
8.724
20
22.186
30
0
42
0.19891236737965798
0
VERTEX
8
0
10
8.634196875
20
22.148803125
30
0
0
VERTEX
8
0
10
2.3231968750000003
20
15.837803125
30
0
42
0.19891236737965798
0
VERTEX
8
0
10
2.286
20
15.748000000000001
30
0
0
VERTEX
8
0
10
2.286
20
15.3543
30
0
0
VERTEX
8
0
10
1.7526000000000002
20
15.3543
30
0
0
VERTEX
8
0
10
1.7526000000000002
20
14.363700000000001
30
0
0
VERTEX
8
0
10
2.286
20
14.363700000000001
30
0
0
VERTEX
8
0
10
2.286
20
12.280000000000001
30
0
42
0.08695678031726696
0
VERTEX
8
0
10
2.294
20
12.236971875
30
0
0
VERTEX
8
0
10
2.294
20
11.395581250000001
30
0
0
VERTEX
8
0
10
1.873996875
20
10.975578125
30
0
42
0.19891236737965798
0
VERTEX
8
0
10
1.8368
20
10.885775
30
0
0
VERTEX
8
0
10
1.8368
20
4.3862000000000005
30
0
42
0.19891236737965798
0
VERTEX
8
0
10
1.873996875
20
4.296396875
30
0
0
VERTEX
8
0
10
4.609196875
20
1.561196875
30
0
0
VERTEX
8
0
10
4.6311687500000005
20
1.54363125
30
0
0
VERTEX
8
0
10
4.65646875
20
1.5313343750000001
30
0
0
VERTEX
8
0
10
4.683853125000001
20
1.5249062500000001
30
0
0
VERTEX
8
0
10
4.711984375
20
1.5246656250000001
30
0
0
SEQEND
0
POLYLINE
66
1
8
1_copper
10
0.0
20
0.0
30
0.0
70
1
0
VERTEX
8
0
10
24.203737500000003
20
6.502603125
30
0
42
0.1878389704295834
0
VERTEX
8
0
10
24.288140625
20
6.539196875
30
0
0
VERTEX
8
0
10
26.279203125000002
20
8.530259375
30
0
42
0.19891236737965798
0
VERTEX
8
0
10
26.3164
20
8.620062500000001
30
0
0
VERTEX
8
0
10
26.3164
20
21.135575
30
0
42
0.19891236737965798
0
VERTEX
8
0
10
26.279203125000002
20
21.225378125000002
30
0
0
VERTEX
8
0
10
24.475578125000002
20
23.029003125000003
30
0
42
0.19891236737965798
0
VERTEX
8
0
10
24.385775000000002
20
23.066200000000002
30
0
0
VERTEX
8
0
10
19.937225
20
23.066200000000002
30
0
42
0.19891236737965798
0
VERTEX
8
0
10
19.847421875000002
20
23.029003125000003
30
0
0
VERTEX
8
0
10
19.00441875
20
22.186
30
0
0
VERTEX
8
0
10
18.534000000000002
20
22.186
30
0
0
VERTEX
8
0
10
18.534000000000002
20
22.609
30
0
0
VERTEX
8
0
10
17.534000000000002
20
22.609
30
0
0
VERTEX
8
0
10
17.534000000000002
20
21.509
30
0
0
VERTEX
8
0
10
18.534000000000002
20
21.509
30
0
0
VERTEX
8
0
10
18.534000000000002
20
21.932000000000002
30
0
0
VERTEX
8
0
10
19.057025
20
21.932000000000002
30
0
42
0.19891236737965798
0
VERTEX
8
0
10
19.146828125000003
20
21.969196875
30
0
0
VERTEX
8
0
10
19.98983125
20
22.8122
30
0
0
VERTEX
8
0
10
24.333168750000002
20
22.8122
30
0
0
VERTEX
8
0
10
26.0624
20
21.082968750000003
30
0
0
VERTEX
8
0
10
26.0624
20
8.67266875
30
0
0
VERTEX
8
0
10
24.14573125
20
6.756
30
0
0
VERTEX
8
0
10
22.518600000000003
20
6.756
30
0
0
VERTEX
8
0
10
21.570796875000003
20
7.703803125
30
0
42
0.19891236737965798
0
VERTEX
8
0
10
21.48099375
20
7.7410000000000005
30
0
0
VERTEX
8
0
10
21.094
20
7.7410000000000005
30
0
42
0.8794486188809765
0
VERTEX
8
0
10
21.061815625
20
7.491146875
30
0
0
VERTEX
8
0
10
21.094
20
7.487
30
0
0
VERTEX
8
0
10
21.4283875
20
7.487
30
0
0
VERTEX
8
0
10
22.376190625
20
6.539196875
30
0
42
0.19891236737965798
0
VERTEX
8
0
10
22.465993750000003
20
6.502000000000001
30
0
0
VERTEX
8
0
10
24.1983375
20
6.502000000000001
30
0
0
SEQEND
0
POLYLINE
66
1
8
16_copper
10
0.0
20
0.0
30
0.0
70
1
0
VERTEX
8
0
10
22.504831250000002
20
1.27265625
30
0
42
0.35541675367152875
0
VERTEX
8
0
10
22.606
20
1.397
30
0
0
VERTEX
8
0
10
22.606
20
3.0559937500000003
30
0
42
0.19891236737965798
0
VERTEX
8
0
10
22.568803125000002
20
3.1457968750000003
30
0
0
VERTEX
8
0
10
18.010796875
20
7.703803125
30
0
42
0.19891236737965798
0
VERTEX
8
0
10
17.92099375
20
7.7410000000000005
30
0
0
VERTEX
8
0
10
17.534000000000002
20
7.7410000000000005
30
0
42
0.8794486188809765
0
VERTEX
8
0
10
17.501815625000003
20
7.491146875
30
0
0
VERTEX
8
0
10
17.534000000000002
20
7.487
30
0
0
VERTEX
8
0
10
17.8683875
20
7.487
30
0
0
VERTEX
8
0
10
22.352
20
3.0033875
30
0
0
VERTEX
8
0
10
22.352
20
1.397
30
0
0
VERTEX
8
0
10
22.355115625
20
1.3690437500000001
30
0
0
VERTEX
8
0
10
22.364309375
20
1.3424562500000001
30
0
0
VERTEX
8
0
10
22.379128125
20
1.318546875
30
0
0
VERTEX
8
0
10
22.39885
20
1.2984875
30
0
0
VERTEX
8
0
10
22.4225
20
1.283259375
30
0
0
VERTEX
8
0
10
22.448925000000003
20
1.2736125
30
0
0
VERTEX
8
0
10
22.476825
20
1.27001875
30
0
0
SEQEND
0
POLYLINE
66
1
8
1_copper
10
0.0
20
0.0
30
0.0
70
1
0
VERTEX
8
0
10
19.943309375000002
20
1.524628125
30
0
42
0.19006808348270823
0
VERTEX
8
0
10
20.028803125
20
1.561196875
30
0
0
VERTEX
8
0
10
24.335096875
20
5.867490625
30
0
42
0.08632614763124287
0
VERTEX
8
0
10
24.384490625
20
5.882165625
30
0
0
VERTEX
8
0
10
24.389453125000003
20
5.884371875
30
0
42
0.06413659186645859
0
VERTEX
8
0
10
24.415140625000003
20
5.904196875
30
0
0
VERTEX
8
0
10
26.736403125000002
20
8.225459375
30
0
42
0.19891236737965798
0
VERTEX
8
0
10
26.773600000000002
20
8.315262500000001
30
0
0
VERTEX
8
0
10
26.773600000000002
20
21.32495625
30
0
42
0.19891236737965798
0
VERTEX
8
0
10
26.736403125000002
20
21.414759375000003
30
0
0
VERTEX
8
0
10
24.664959375000002
20
23.486203125
30
0
42
0.19891236737965798
0
VERTEX
8
0
10
24.575156250000003
20
23.523400000000002
30
0
0
VERTEX
8
0
10
17.854425
20
23.523400000000002
30
0
42
0.19891236737965798
0
VERTEX
8
0
10
17.764621875
20
23.486203125
30
0
0
VERTEX
8
0
10
16.46441875
20
22.186
30
0
0
VERTEX
8
0
10
15.994000000000002
20
22.186
30
0
0
VERTEX
8
0
10
15.994000000000002
20
22.609
30
0
0
VERTEX
8
0
10
14.994000000000002
20
22.609
30
0
0
VERTEX
8
0
10
14.994000000000002
20
21.509
30
0
0
VERTEX
8
0
10
15.994000000000002
20
21.509
30
0
0
VERTEX
8
0
10
15.994000000000002
20
21.932000000000002
30
0
0
VERTEX
8
0
10
16.517025
20
21.932000000000002
30
0
42
0.19891236737965798
0
VERTEX
8
0
10
16.606828125
20
21.969196875
30
0
0
VERTEX
8
0
10
17.90703125
20
23.2694
30
0
0
VERTEX
8
0
10
24.522550000000003
20
23.2694
30
0
0
VERTEX
8
0
10
26.5196
20
21.27235
30
0
0
VERTEX
8
0
10
26.5196
20
8.36786875
30
0
0
VERTEX
8
0
10
24.272240625000002
20
6.120509375
30
0
42
0.17897691997572523
0
VERTEX
8
0
10
24.192196875
20
6.083803125
30
0
0
VERTEX
8
0
10
20.066000000000003
20
1.95760625
30
0
0
VERTEX
8
0
10
20.066000000000003
20
3.556
30
0
42
0.19891236737965798
0
VERTEX
8
0
10
20.028803125
20
3.645803125
30
0
0
VERTEX
8
0
10
15.970803125000002
20
7.703803125
30
0
42
0.19891236737965798
0
VERTEX
8
0
10
15.881
20
7.7410000000000005
30
0
0
VERTEX
8
0
10
15.754000000000001
20
7.7410000000000005
30
0
42
0.8794486188809765
0
VERTEX
8
0
10
15.721815625000001
20
7.491146875
30
0
0
VERTEX
8
0
10
15.754000000000001
20
7.487
30
0
0
VERTEX
8
0
10
15.82839375
20
7.487
30
0
0
VERTEX
8
0
10
19.812
20
3.5033937500000003
30
0
0
VERTEX
8
0
10
19.812
20
1.651
30
0
0
VERTEX
8
0
10
19.812721875
20
1.6445281250000001
30
0
0
VERTEX
8
0
10
19.812665625
20
1.638015625
30
0
0
VERTEX
8
0
10
19.814275000000002
20
1.6305875
30
0
0
VERTEX
8
0
10
19.815115625
20
1.6230437500000001
30
0
0
VERTEX
8
0
10
19.817240625
20
1.6168968750000001
30
0
0
VERTEX
8
0
10
19.818621875
20
1.610525
30
0
0
VERTEX
8
0
10
19.821828125
20
1.6036281250000002
30
0
0
VERTEX
8
0
10
19.824309375000002
20
1.5964562500000001
30
0
0
VERTEX
8
0
10
19.8277375
20
1.5909250000000001
30
0
0
VERTEX
8
0
10
19.830484375
20
1.5850187500000001
30
0
0
VERTEX
8
0
10
19.835125
20
1.579003125
30
0
0
VERTEX
8
0
10
19.839128125000002
20
1.572546875
30
0
0
VERTEX
8
0
10
19.8436875
20
1.5679093750000002
30
0
0
VERTEX
8
0
10
19.847671875
20
1.562746875
30
0
0
VERTEX
8
0
10
19.853534375000002
20
1.55789375
30
0
0
VERTEX
8
0
10
19.85885
20
1.5524875
30
0
0
VERTEX
8
0
10
19.864321875
20
1.5489656250000001
30
0
0
VERTEX
8
0
10
19.869340625
20
1.544809375
30
0
0
VERTEX
8
0
10
19.8761125
20
1.541371875
30
0
0
VERTEX
8
0
10
19.8825
20
1.537259375
30
0
0
VERTEX
8
0
10
19.888615625
20
1.535028125
30
0
0
VERTEX
8
0
10
19.894425000000002
20
1.5320781250000002
30
0
0
VERTEX
8
0
10
19.901796875000002
20
1.530215625
30
0
0
VERTEX
8
0
10
19.908925
20
1.5276125
30
0
0
VERTEX
8
0
10
19.91538125
20
1.52678125
30
0
0
VERTEX
8
0
10
19.921696875000002
20
1.525184375
30
0
0
VERTEX
8
0
10
19.9292875
20
1.524990625
30
0
0
VERTEX
8
0
10
19.936825000000002
20
1.52401875
30
0
0
SEQEND
0
POLYLINE
66
1
8
1_copper
10
0.0
20
0.0
30
0.0
70
1
0
VERTEX
8
0
10
17.42483125
20
1.27265625
30
0
42
0.35541675367152875
0
VERTEX
8
0
10
17.526
20
1.397
30
0
0
VERTEX
8
0
10
17.526
20
4.189
30
0
42
0.19891236737965798
0
VERTEX
8
0
10
17.488803125
20
4.2788031250000005
30
0
0
VERTEX
8
0
10
14.063803125000002
20
7.703803125
30
0
42
0.9999999999999999
0
VERTEX
8
0
10
13.884196875
20
7.524196875
30
0
0
VERTEX
8
0
10
17.272000000000002
20
4.13639375
30
0
0
VERTEX
8
0
10
17.272000000000002
20
1.397
30
0
0
VERTEX
8
0
10
17.275115625
20
1.3690437500000001
30
0
0
VERTEX
8
0
10
17.284309375
20
1.3424562500000001
30
0
0
VERTEX
8
0
10
17.299128125
20
1.318546875
30
0
0
VERTEX
8
0
10
17.31885
20
1.2984875
30
0
0
VERTEX
8
0
10
17.3425
20
1.283259375
30
0
0
VERTEX
8
0
10
17.368925
20
1.2736125
30
0
0
VERTEX
8
0
10
17.396825
20
1.27001875
30
0
0
SEQEND
0
POLYLINE
66
1
8
1_copper
10
0.0
20
0.0
30
0.0
70
1
0
VERTEX
8
0
10
14.884831250000001
20
1.52665625
30
0
42
0.35541675367152875
0
VERTEX
8
0
10
14.986
20
1.651
30
0
0
VERTEX
8
0
10
14.986
20
4.949
30
0
42
0.19891236737965798
0
VERTEX
8
0
10
14.948803125000001
20
5.038803125
30
0
0
VERTEX
8
0
10
12.283803125
20
7.703803125
30
0
42
0.9999999999999999
0
VERTEX
8
0
10
12.104196875000001
20
7.524196875
30
0
0
VERTEX
8
0
10
14.732000000000001
20
4.8963937500000005
30
0
0
VERTEX
8
0
10
14.732000000000001
20
1.651
30
0
0
VERTEX
8
0
10
14.735115625
20
1.6230437500000001
30
0
0
VERTEX
8
0
10
14.744309375
20
1.5964562500000001
30
0
0
VERTEX
8
0
10
14.759128125
20
1.572546875
30
0
0
VERTEX
8
0
10
14.77885
20
1.5524875
30
0
0
VERTEX
8
0
10
14.8025
20
1.537259375
30
0
0
VERTEX
8
0
10
14.828925
20
1.5276125
30
0
0
VERTEX
8
0
10
14.856825
20
1.52401875
30
0
0
SEQEND
0
POLYLINE
66
1
8
1_copper
10
0.0
20
0.0
30
0.0
70
1
0
VERTEX
8
0
10
12.34483125
20
1.27265625
30
0
42
0.35541675367152875
0
VERTEX
8
0
10
12.446
20
1.397
30
0
0
VERTEX
8
0
10
12.446
20
5.7090000000000005
30
0
42
0.19891236737965798
0
VERTEX
8
0
10
12.408803125
20
5.798803125
30
0
0
VERTEX
8
0
10
10.503803125000001
20
7.703803125
30
0
42
0.9999999999999999
0
VERTEX
8
0
10
10.324196875
20
7.524196875
30
0
0
VERTEX
8
0
10
12.192
20
5.65639375
30
0
0
VERTEX
8
0
10
12.192
20
1.397
30
0
0
VERTEX
8
0
10
12.195115625000001
20
1.3690437500000001
30
0
0
VERTEX
8
0
10
12.204309375000001
20
1.3424562500000001
30
0
0
VERTEX
8
0
10
12.219128125000001
20
1.318546875
30
0
0
VERTEX
8
0
10
12.238850000000001
20
1.2984875
30
0
0
VERTEX
8
0
10
12.262500000000001
20
1.283259375
30
0
0
VERTEX
8
0
10
12.288925
20
1.2736125
30
0
0
VERTEX
8
0
10
12.316825000000001
20
1.27001875
30
0
0
SEQEND
0
POLYLINE
66
1
8
1_copper
10
0.0
20
0.0
30
0.0
70
1
0
VERTEX
8
0
10
9.804831250000001
20
1.52665625
30
0
42
0.35541675367152875
0
VERTEX
8
0
10
9.906
20
1.651
30
0
0
VERTEX
8
0
10
9.906
20
3.6809937500000003
30
0
42
0.19891236737965798
0
VERTEX
8
0
10
9.868803125000001
20
3.7707968750000003
30
0
0
VERTEX
8
0
10
6.3386000000000005
20
7.301
30
0
0
VERTEX
8
0
10
6.3386000000000005
20
17.26073125
30
0
0
VERTEX
8
0
10
8.22986875
20
19.152
30
0
0
VERTEX
8
0
10
11.6594
20
19.152
30
0
0
VERTEX
8
0
10
12.607203125
20
18.204196875
30
0
42
0.19891236737965798
0
VERTEX
8
0
10
12.697006250000001
20
18.167
30
0
0
VERTEX
8
0
10
13.084000000000001
20
18.167
30
0
42
0.4142135623730951
0
VERTEX
8
0
10
13.211
20
18.294
30
0
0
VERTEX
8
0
10
13.211
20
19.809
30
0
0
VERTEX
8
0
10
13.454
20
19.809
30
0
0
VERTEX
8
0
10
13.454
20
20.909000000000002
30
0
0
VERTEX
8
0
10
12.454
20
20.909000000000002
30
0
0
VERTEX
8
0
10
12.454
20
19.809
30
0
0
VERTEX
8
0
10
12.957
20
19.809
30
0
0
VERTEX
8
0
10
12.957
20
18.421
30
0
0
VERTEX
8
0
10
12.749612500000001
20
18.421
30
0
0
VERTEX
8
0
10
11.801809375000001
20
19.368803125
30
0
42
0.19891236737965798
0
VERTEX
8
0
10
11.71200625
20
19.406000000000002
30
0
0
VERTEX
8
0
10
8.177262500000001
20
19.406000000000002
30
0
42
0.19891236737965798
0
VERTEX
8
0
10
8.087459375
20
19.368803125
30
0
0
VERTEX
8
0
10
6.121796875
20
17.403140625000002
30
0
42
0.19891236737965798
0
VERTEX
8
0
10
6.0846
20
17.3133375
30
0
0
VERTEX
8
0
10
6.0846
20
7.24839375
30
0
42
0.19891236737965798
0
VERTEX
8
0
10
6.121796875
20
7.158590625
30
0
0
VERTEX
8
0
10
9.652000000000001
20
3.6283875
30
0
0
VERTEX
8
0
10
9.652000000000001
20
1.651
30
0
0
VERTEX
8
0
10
9.655115625
20
1.6230437500000001
30
0
0
VERTEX
8
0
10
9.664309375
20
1.5964562500000001
30
0
0
VERTEX
8
0
10
9.679128125
20
1.572546875
30
0
0
VERTEX
8
0
10
9.69885
20
1.5524875
30
0
0
VERTEX
8
0
10
9.7225
20
1.537259375
30
0
0
VERTEX
8
0
10
9.748925
20
1.5276125
30
0
0
VERTEX
8
0
10
9.776825
20
1.52401875
30
0
0
SEQEND
0
POLYLINE
66
1
8
1_copper
10
0.0
20
0.0
30
0.0
70
1
0
VERTEX
8
0
10
20.242409375
20
18.172946875
30
0
42
0.12011069746328462
0
VERTEX
8
0
10
20.293803125
20
18.204196875
30
0
0
VERTEX
8
0
10
20.663803125
20
18.574196875000002
30
0
42
0.19891236737965798
0
VERTEX
8
0
10
20.701
20
18.664
30
0
0
VERTEX
8
0
10
20.701
20
19.809
30
0
0
VERTEX
8
0
10
21.074
20
19.809
30
0
0
VERTEX
8
0
10
21.074
20
20.232
30
0
0
VERTEX
8
0
10
22.614
20
20.232
30
0
0
VERTEX
8
0
10
22.614
20
19.809
30
0
0
VERTEX
8
0
10
23.614
20
19.809
30
0
0
VERTEX
8
0
10
23.614
20
20.909000000000002
30
0
0
VERTEX
8
0
10
22.614
20
20.909000000000002
30
0
0
VERTEX
8
0
10
22.614
20
20.486
30
0
0
VERTEX
8
0
10
21.074
20
20.486
30
0
0
VERTEX
8
0
10
21.074
20
20.909000000000002
30
0
0
VERTEX
8
0
10
20.074
20
20.909000000000002
30
0
0
VERTEX
8
0
10
20.074
20
19.809
30
0
0
VERTEX
8
0
10
20.447000000000003
20
19.809
30
0
0
VERTEX
8
0
10
20.447000000000003
20
18.71660625
30
0
0
VERTEX
8
0
10
20.114196875
20
18.383803125
30
0
0
VERTEX
8
0
10
20.09663125
20
18.36183125
30
0
0
VERTEX
8
0
10
20.084334375
20
18.33653125
30
0
0
VERTEX
8
0
10
20.07790625
20
18.309146875
30
0
0
VERTEX
8
0
10
20.077665625
20
18.281015625000002
30
0
0
VERTEX
8
0
10
20.083621875000002
20
18.253525
30
0
0
VERTEX
8
0
10
20.095484375
20
18.22801875
30
0
0
VERTEX
8
0
10
20.112671875
20
18.205746875
30
0
0
VERTEX
8
0
10
20.134340625
20
18.187809375
30
0
0
VERTEX
8
0
10
20.159425000000002
20
18.175078125000002
30
0
0
VERTEX
8
0
10
20.186696875000003
20
18.168184375
30
0
0
VERTEX
8
0
10
20.214818750000003
20
18.1674625
30
0
0
SEQEND
0
CIRCLE
8
drills_NPTH
10
2.54
20
20.955000000000002
30
0
40
1.5
0
CIRCLE
8
drills_NPTH
10
31.75
20
3.1750000000000003
30
0
40
1.5
0
CIRCLE
8
drills_NPTH
10
31.75
20
20.955000000000002
30
0
40
1.5
0
CIRCLE
8
drills_PTH
10
4.699
20
1.651
30
0
40
0.508
0
CIRCLE
8
drills_PTH
10
7.239000000000001
20
1.397
30
0
40
0.508
0
CIRCLE
8
drills_PTH
10
9.779
20
1.651
30
0
40
0.508
0
CIRCLE
8
drills_PTH
10
12.319
20
1.397
30
0
40
0.508
0
CIRCLE
8
drills_PTH
10
14.859
20
1.651
30
0
40
0.508
0
CIRCLE
8
drills_PTH
10
17.399
20
1.397
30
0
40
0.508
0
CIRCLE
8
drills_PTH
10
19.939
20
1.651
30
0
40
0.508
0
CIRCLE
8
drills_PTH
10
22.479000000000003
20
1.397
30
0
40
0.508
0
CIRCLE
8
drills_PTH
10
23.764000000000003
20
18.294
30
0
40
0.35000000000000003
0
CIRCLE
8
drills_PTH
10
21.984
20
18.294
30
0
40
0.35000000000000003
0
CIRCLE
8
drills_PTH
10
20.204
20
18.294
30
0
40
0.35000000000000003
0
CIRCLE
8
drills_PTH
10
18.424
20
18.294
30
0
40
0.35000000000000003
0
CIRCLE
8
drills_PTH
10
16.644000000000002
20
18.294
30
0
40
0.35000000000000003
0
CIRCLE
8
drills_PTH
10
14.864
20
18.294
30
0
40
0.35000000000000003
0
CIRCLE
8
drills_PTH
10
13.084000000000001
20
18.294
30
0
40
0.35000000000000003
0
CIRCLE
8
drills_PTH
10
11.304
20
18.294
30
0
40
0.35000000000000003
0
CIRCLE
8
drills_PTH
10
10.414
20
7.614000000000001
30
0
40
0.35000000000000003
0
CIRCLE
8
drills_PTH
10
12.194
20
7.614000000000001
30
0
40
0.35000000000000003
0
CIRCLE
8
drills_PTH
10
13.974
20
7.614000000000001
30
0
40
0.35000000000000003
0
CIRCLE
8
drills_PTH
10
15.754000000000001
20
7.614000000000001
30
0
40
0.35000000000000003
0
CIRCLE
8
drills_PTH
10
17.534000000000002
20
7.614000000000001
30
0
40
0.35000000000000003
0
CIRCLE
8
drills_PTH
10
19.314
20
7.614000000000001
30
0
40
0.35000000000000003
0
CIRCLE
8
drills_PTH
10
21.094
20
7.614000000000001
30
0
40
0.35000000000000003
0
CIRCLE
8
drills_PTH
10
22.874000000000002
20
7.614000000000001
30
0
40
0.35000000000000003
0
CIRCLE
8
drills_via_1_16
10
24.384
20
20.955000000000002
30
0
40
0.17500000000000002
0
CIRCLE
8
drills_via_1_16
10
4.064
20
12.319
30
0
40
0.17500000000000002
0
CIRCLE
8
drills_via_1_16
10
11.049000000000001
20
21.209
30
0
40
0.17500000000000002
0
ENDSEC
0
EOF