0
SECTION
2
HEADER
9
$ANGDIR
70
1
9
$AUNITS
70
0
9
$PROJECTNAME
1
PMW3360MouseSensor
9
$TDCREATE
40
2458846.75976820
9
$INSUNITS
70
4
0
ENDSEC
0
SECTION
2
ENTITIES
0
POLYLINE
66
1
8
outline
10
0.0
20
0.0
30
0.0
70
1
0
VERTEX
8
0
10
0
20
0
30
0
0
VERTEX
8
0
10
27
20
0
30
0
0
VERTEX
8
0
10
27
20
21
30
0
0
VERTEX
8
0
10
0
20
21
30
0
0
VERTEX
8
0
10
0
20
0
30
0
0
SEQEND
0
POLYLINE
66
1
8
holes
10
0.0
20
0.0
30
0.0
70
1
0
VERTEX
8
0
10
5.348
20
5.6240000000000006
30
0
0
VERTEX
8
0
10
22.608
20
5.6240000000000006
30
0
0
VERTEX
8
0
10
22.608
20
13.97
30
0
0
VERTEX
8
0
10
5.348
20
13.97
30
0
0
VERTEX
8
0
10
5.348
20
5.6240000000000006
30
0
0
SEQEND
0
POLYLINE
66
1
8
holes
10
0.0
20
0.0
30
0.0
70
1
0
VERTEX
8
0
10
5.348
20
5.6134
30
0
0
VERTEX
8
0
10
22.608
20
5.6134
30
0
0
VERTEX
8
0
10
22.608
20
13.97
30
0
0
VERTEX
8
0
10
5.348
20
13.97
30
0
0
VERTEX
8
0
10
5.348
20
5.6134
30
0
0
SEQEND
0
POLYLINE
66
1
8
holes
10
0.0
20
0.0
30
0.0
70
1
0
VERTEX
8
0
10
4.04
20
17.726428125
30
0
0
VERTEX
8
0
10
4.03235625
20
17.619556250000002
30
0
0
VERTEX
8
0
10
4.017109375
20
17.5135
30
0
0
VERTEX
8
0
10
3.99433125
20
17.408803125000002
30
0
0
VERTEX
8
0
10
3.9641468750000004
20
17.306
30
0
0
VERTEX
8
0
10
3.9267031250000004
20
17.205609375
30
0
0
VERTEX
8
0
10
3.8821937500000003
20
17.108146875
30
0
0
VERTEX
8
0
10
3.83084375
20
17.01410625
30
0
0
VERTEX
8
0
10
3.772915625
20
16.923971875
30
0
0
VERTEX
8
0
10
3.70870625
20
16.838196875
30
0
0
VERTEX
8
0
10
3.638540625
20
16.757221875
30
0
0
VERTEX
8
0
10
3.5627781250000004
20
16.681459375
30
0
0
VERTEX
8
0
10
3.4818031250000003
20
16.61129375
30
0
0
VERTEX
8
0
10
3.396028125
20
16.547084375
30
0
0
VERTEX
8
0
10
3.30589375
20
16.48915625
30
0
0
VERTEX
8
0
10
3.211853125
20
16.43780625
30
0
0
VERTEX
8
0
10
3.114390625
20
16.393296875
30
0
0
VERTEX
8
0
10
3.0140000000000002
20
16.355853125
30
0
0
VERTEX
8
0
10
2.9111968750000004
20
16.325668750000002
30
0
0
VERTEX
8
0
10
2.8065
20
16.302890625
30
0
0
VERTEX
8
0
10
2.7004437500000003
20
16.28764375
30
0
0
VERTEX
8
0
10
2.5935718750000003
20
16.28
30
0
0
VERTEX
8
0
10
2.486428125
20
16.28
30
0
0
VERTEX
8
0
10
2.3795562500000003
20
16.28764375
30
0
0
VERTEX
8
0
10
2.2735000000000003
20
16.302890625
30
0
0
VERTEX
8
0
10
2.168803125
20
16.325668750000002
30
0
0
VERTEX
8
0
10
2.0660000000000003
20
16.355853125
30
0
0
VERTEX
8
0
10
1.965609375
20
16.393296875
30
0
0
VERTEX
8
0
10
1.868146875
20
16.43780625
30
0
0
VERTEX
8
0
10
1.77410625
20
16.48915625
30
0
0
VERTEX
8
0
10
1.6839718750000001
20
16.547084375
30
0
0
VERTEX
8
0
10
1.5981968750000002
20
16.61129375
30
0
0
VERTEX
8
0
10
1.5172218750000002
20
16.681459375
30
0
0
VERTEX
8
0
10
1.441459375
20
16.757221875
30
0
0
VERTEX
8
0
10
1.37129375
20
16.838196875
30
0
0
VERTEX
8
0
10
1.307084375
20
16.923971875
30
0
0
VERTEX
8
0
10
1.24915625
20
17.01410625
30
0
0
VERTEX
8
0
10
1.19780625
20
17.108146875
30
0
0
VERTEX
8
0
10
1.153296875
20
17.205609375
30
0
0
VERTEX
8
0
10
1.1158531250000001
20
17.306
30
0
0
VERTEX
8
0
10
1.08566875
20
17.408803125000002
30
0
0
VERTEX
8
0
10
1.062890625
20
17.5135
30
0
0
VERTEX
8
0
10
1.04764375
20
17.619556250000002
30
0
0
VERTEX
8
0
10
1.04
20
17.726428125
30
0
0
VERTEX
8
0
10
1.04
20
17.833571875
30
0
0
VERTEX
8
0
10
1.04764375
20
17.94044375
30
0
0
VERTEX
8
0
10
1.062890625
20
18.0465
30
0
0
VERTEX
8
0
10
1.08566875
20
18.151196875
30
0
0
VERTEX
8
0
10
1.1158531250000001
20
18.254
30
0
0
VERTEX
8
0
10
1.153296875
20
18.354390625
30
0
0
VERTEX
8
0
10
1.19780625
20
18.451853125
30
0
0
VERTEX
8
0
10
1.24915625
20
18.54589375
30
0
0
VERTEX
8
0
10
1.307084375
20
18.636028125
30
0
0
VERTEX
8
0
10
1.37129375
20
18.721803125
30
0
0
VERTEX
8
0
10
1.441459375
20
18.802778125
30
0
0
VERTEX
8
0
10
1.5172218750000002
20
18.878540625
30
0
0
VERTEX
8
0
10
1.5981968750000002
20
18.94870625
30
0
0
VERTEX
8
0
10
1.6839718750000001
20
19.012915625
30
0
0
VERTEX
8
0
10
1.77410625
20
19.07084375
30
0
0
VERTEX
8
0
10
1.868146875
20
19.12219375
30
0
0
VERTEX
8
0
10
1.965609375
20
19.166703125
30
0
0
VERTEX
8
0
10
2.0660000000000003
20
19.204146875
30
0
0
VERTEX
8
0
10
2.168803125
20
19.23433125
30
0
0
VERTEX
8
0
10
2.2735000000000003
20
19.257109375000002
30
0
0
VERTEX
8
0
10
2.3795562500000003
20
19.27235625
30
0
0
VERTEX
8
0
10
2.486428125
20
19.28
30
0
0
VERTEX
8
0
10
2.5935718750000003
20
19.28
30
0
0
VERTEX
8
0
10
2.7004437500000003
20
19.27235625
30
0
0
VERTEX
8
0
10
2.8065
20
19.257109375000002
30
0
0
VERTEX
8
0
10
2.9111968750000004
20
19.23433125
30
0
0
VERTEX
8
0
10
3.0140000000000002
20
19.204146875
30
0
0
VERTEX
8
0
10
3.114390625
20
19.166703125
30
0
0
VERTEX
8
0
10
3.211853125
20
19.12219375
30
0
0
VERTEX
8
0
10
3.30589375
20
19.07084375
30
0
0
VERTEX
8
0
10
3.396028125
20
19.012915625
30
0
0
VERTEX
8
0
10
3.4818031250000003
20
18.94870625
30
0
0
VERTEX
8
0
10
3.5627781250000004
20
18.878540625
30
0
0
VERTEX
8
0
10
3.638540625
20
18.802778125
30
0
0
VERTEX
8
0
10
3.70870625
20
18.721803125
30
0
0
VERTEX
8
0
10
3.772915625
20
18.636028125
30
0
0
VERTEX
8
0
10
3.83084375
20
18.54589375
30
0
0
VERTEX
8
0
10
3.8821937500000003
20
18.451853125
30
0
0
VERTEX
8
0
10
3.9267031250000004
20
18.354390625
30
0
0
VERTEX
8
0
10
3.9641468750000004
20
18.254
30
0
0
VERTEX
8
0
10
3.99433125
20
18.151196875
30
0
0
VERTEX
8
0
10
4.017109375
20
18.0465
30
0
0
VERTEX
8
0
10
4.03235625
20
17.94044375
30
0
0
VERTEX
8
0
10
4.04
20
17.833571875
30
0
0
VERTEX
8
0
10
4.04
20
17.726428125
30
0
0
SEQEND
0
POLYLINE
66
1
8
holes
10
0.0
20
0.0
30
0.0
70
1
0
VERTEX
8
0
10
25.630000000000003
20
2.486428125
30
0
0
VERTEX
8
0
10
25.622356250000003
20
2.3795562500000003
30
0
0
VERTEX
8
0
10
25.607109375
20
2.2735000000000003
30
0
0
VERTEX
8
0
10
25.58433125
20
2.168803125
30
0
0
VERTEX
8
0
10
25.554146875
20
2.0660000000000003
30
0
0
VERTEX
8
0
10
25.516703125000003
20
1.965609375
30
0
0
VERTEX
8
0
10
25.472193750000002
20
1.868146875
30
0
0
VERTEX
8
0
10
25.42084375
20
1.77410625
30
0
0
VERTEX
8
0
10
25.362915625000003
20
1.6839718750000001
30
0
0
VERTEX
8
0
10
25.298706250000002
20
1.5981968750000002
30
0
0
VERTEX
8
0
10
25.228540625
20
1.5172218750000002
30
0
0
VERTEX
8
0
10
25.152778125
20
1.441459375
30
0
0
VERTEX
8
0
10
25.071803125000002
20
1.37129375
30
0
0
VERTEX
8
0
10
24.986028125
20
1.307084375
30
0
0
VERTEX
8
0
10
24.895893750000003
20
1.24915625
30
0
0
VERTEX
8
0
10
24.801853125
20
1.19780625
30
0
0
VERTEX
8
0
10
24.704390625000002
20
1.153296875
30
0
0
VERTEX
8
0
10
24.604000000000003
20
1.1158531250000001
30
0
0
VERTEX
8
0
10
24.501196875
20
1.08566875
30
0
0
VERTEX
8
0
10
24.3965
20
1.062890625
30
0
0
VERTEX
8
0
10
24.29044375
20
1.04764375
30
0
0
VERTEX
8
0
10
24.183571875000002
20
1.04
30
0
0
VERTEX
8
0
10
24.076428125
20
1.04
30
0
0
VERTEX
8
0
10
23.96955625
20
1.04764375
30
0
0
VERTEX
8
0
10
23.863500000000002
20
1.062890625
30
0
0
VERTEX
8
0
10
23.758803125
20
1.08566875
30
0
0
VERTEX
8
0
10
23.656000000000002
20
1.1158531250000001
30
0
0
VERTEX
8
0
10
23.555609375
20
1.153296875
30
0
0
VERTEX
8
0
10
23.458146875
20
1.19780625
30
0
0
VERTEX
8
0
10
23.364106250000003
20
1.24915625
30
0
0
VERTEX
8
0
10
23.273971875
20
1.307084375
30
0
0
VERTEX
8
0
10
23.188196875000003
20
1.37129375
30
0
0
VERTEX
8
0
10
23.107221875
20
1.441459375
30
0
0
VERTEX
8
0
10
23.031459375
20
1.5172218750000002
30
0
0
VERTEX
8
0
10
22.96129375
20
1.5981968750000002
30
0
0
VERTEX
8
0
10
22.897084375000002
20
1.6839718750000001
30
0
0
VERTEX
8
0
10
22.839156250000002
20
1.77410625
30
0
0
VERTEX
8
0
10
22.787806250000003
20
1.868146875
30
0
0
VERTEX
8
0
10
22.743296875000002
20
1.965609375
30
0
0
VERTEX
8
0
10
22.705853125
20
2.0660000000000003
30
0
0
VERTEX
8
0
10
22.67566875
20
2.168803125
30
0
0
VERTEX
8
0
10
22.652890625
20
2.2735000000000003
30
0
0
VERTEX
8
0
10
22.637643750000002
20
2.3795562500000003
30
0
0
VERTEX
8
0
10
22.630000000000003
20
2.486428125
30
0
0
VERTEX
8
0
10
22.630000000000003
20
2.5935718750000003
30
0
0
VERTEX
8
0
10
22.637643750000002
20
2.7004437500000003
30
0
0
VERTEX
8
0
10
22.652890625
20
2.8065
30
0
0
VERTEX
8
0
10
22.67566875
20
2.9111968750000004
30
0
0
VERTEX
8
0
10
22.705853125
20
3.0140000000000002
30
0
0
VERTEX
8
0
10
22.743296875000002
20
3.114390625
30
0
0
VERTEX
8
0
10
22.787806250000003
20
3.211853125
30
0
0
VERTEX
8
0
10
22.839156250000002
20
3.30589375
30
0
0
VERTEX
8
0
10
22.897084375000002
20
3.396028125
30
0
0
VERTEX
8
0
10
22.96129375
20
3.4818031250000003
30
0
0
VERTEX
8
0
10
23.031459375
20
3.5627781250000004
30
0
0
VERTEX
8
0
10
23.107221875
20
3.638540625
30
0
0
VERTEX
8
0
10
23.188196875000003
20
3.70870625
30
0
0
VERTEX
8
0
10
23.273971875
20
3.772915625
30
0
0
VERTEX
8
0
10
23.364106250000003
20
3.83084375
30
0
0
VERTEX
8
0
10
23.458146875
20
3.8821937500000003
30
0
0
VERTEX
8
0
10
23.555609375
20
3.9267031250000004
30
0
0
VERTEX
8
0
10
23.656000000000002
20
3.9641468750000004
30
0
0
VERTEX
8
0
10
23.758803125
20
3.99433125
30
0
0
VERTEX
8
0
10
23.863500000000002
20
4.017109375
30
0
0
VERTEX
8
0
10
23.96955625
20
4.03235625
30
0
0
VERTEX
8
0
10
24.076428125
20
4.04
30
0
0
VERTEX
8
0
10
24.183571875000002
20
4.04
30
0
0
VERTEX
8
0
10
24.29044375
20
4.03235625
30
0
0
VERTEX
8
0
10
24.3965
20
4.017109375
30
0
0
VERTEX
8
0
10
24.501196875
20
3.99433125
30
0
0
VERTEX
8
0
10
24.604000000000003
20
3.9641468750000004
30
0
0
VERTEX
8
0
10
24.704390625000002
20
3.9267031250000004
30
0
0
VERTEX
8
0
10
24.801853125
20
3.8821937500000003
30
0
0
VERTEX
8
0
10
24.895893750000003
20
3.83084375
30
0
0
VERTEX
8
0
10
24.986028125
20
3.772915625
30
0
0
VERTEX
8
0
10
25.071803125000002
20
3.70870625
30
0
0
VERTEX
8
0
10
25.152778125
20
3.638540625
30
0
0
VERTEX
8
0
10
25.228540625
20
3.5627781250000004
30
0
0
VERTEX
8
0
10
25.298706250000002
20
3.4818031250000003
30
0
0
VERTEX
8
0
10
25.362915625000003
20
3.396028125
30
0
0
VERTEX
8
0
10
25.42084375
20
3.30589375
30
0
0
VERTEX
8
0
10
25.472193750000002
20
3.211853125
30
0
0
VERTEX
8
0
10
25.516703125000003
20
3.114390625
30
0
0
VERTEX
8
0
10
25.554146875
20
3.0140000000000002
30
0
0
VERTEX
8
0
10
25.58433125
20
2.9111968750000004
30
0
0
VERTEX
8
0
10
25.607109375
20
2.8065
30
0
0
VERTEX
8
0
10
25.622356250000003
20
2.7004437500000003
30
0
0
VERTEX
8
0
10
25.630000000000003
20
2.5935718750000003
30
0
0
VERTEX
8
0
10
25.630000000000003
20
2.486428125
30
0
0
SEQEND
0
POLYLINE
66
1
8
1_copper
10
0.0
20
0.0
30
0.0
70
1
0
VERTEX
8
0
10
19.439
20
19.434
30
0
0
VERTEX
8
0
10
19.439
20
19.087190625
30
0
0
VERTEX
8
0
10
19.185000000000002
20
19.087190625
30
0
0
VERTEX
8
0
10
19.185000000000002
20
19.230800000000002
30
0
42
0.4142135623730951
0
VERTEX
8
0
10
19.0834
20
19.3324
30
0
0
VERTEX
8
0
10
18.254596875
20
19.3324
30
0
42
0.4142135623730951
0
VERTEX
8
0
10
18.152996875
20
19.230800000000002
30
0
0
VERTEX
8
0
10
18.152996875
20
19.087190625
30
0
0
VERTEX
8
0
10
17.899
20
19.087190625
30
0
0
VERTEX
8
0
10
17.899
20
19.434
30
0
0
VERTEX
8
0
10
16.899
20
19.434
30
0
0
VERTEX
8
0
10
16.899
20
18.334
30
0
0
VERTEX
8
0
10
17.899
20
18.334
30
0
0
VERTEX
8
0
10
17.899
20
18.680803125
30
0
0
VERTEX
8
0
10
18.152996875
20
18.680803125
30
0
0
VERTEX
8
0
10
18.152996875
20
18.415
30
0
42
0.4142135623730951
0
VERTEX
8
0
10
18.254596875
20
18.3134
30
0
0
VERTEX
8
0
10
19.0834
20
18.3134
30
0
42
0.4142135623730951
0
VERTEX
8
0
10
19.185000000000002
20
18.415
30
0
0
VERTEX
8
0
10
19.185000000000002
20
18.680803125
30
0
0
VERTEX
8
0
10
19.439
20
18.680803125
30
0
0
VERTEX
8
0
10
19.439
20
18.334
30
0
0
VERTEX
8
0
10
20.439
20
18.334
30
0
0
VERTEX
8
0
10
20.439
20
18.680803125
30
0
0
VERTEX
8
0
10
20.692996875000002
20
18.680803125
30
0
0
VERTEX
8
0
10
20.692996875000002
20
18.30055625
30
0
0
VERTEX
8
0
10
20.675687500000002
20
18.23595625
30
0
0
VERTEX
8
0
10
20.642243750000002
20
18.178034375
30
0
42
0.558836171867874
0
VERTEX
8
0
10
20.605968750000002
20
17.998075
30
0
0
VERTEX
8
0
10
20.743796875
20
17.86025
30
0
0
VERTEX
8
0
10
20.743796875
20
17.145
30
0
42
0.4142135623730951
0
VERTEX
8
0
10
20.845396875000002
20
17.043400000000002
30
0
0
VERTEX
8
0
10
22.225
20
17.043400000000002
30
0
42
0.4142135623730951
0
VERTEX
8
0
10
22.326600000000003
20
17.145
30
0
0
VERTEX
8
0
10
22.326600000000003
20
17.995634375
30
0
42
0.19891236737965798
0
VERTEX
8
0
10
22.296840625
20
18.067475
30
0
0
VERTEX
8
0
10
21.061671875000002
20
19.302640625000002
30
0
42
0.19891236737965798
0
VERTEX
8
0
10
20.98983125
20
19.3324
30
0
0
VERTEX
8
0
10
20.794596875
20
19.3324
30
0
42
0.4142135623730951
0
VERTEX
8
0
10
20.692996875000002
20
19.230800000000002
30
0
0
VERTEX
8
0
10
20.692996875000002
20
19.087190625
30
0
0
VERTEX
8
0
10
20.439
20
19.087190625
30
0
0
VERTEX
8
0
10
20.439
20
19.434
30
0
0
SEQEND
0
POLYLINE
66
1
8
1_copper
10
0.0
20
0.0
30
0.0
70
1
0
VERTEX
8
0
10
1.024
20
7.574000000000001
30
0
0
VERTEX
8
0
10
1.024
20
6.474
30
0
0
VERTEX
8
0
10
2.024
20
6.474
30
0
0
VERTEX
8
0
10
2.024
20
6.871603125
30
0
0
VERTEX
8
0
10
2.277996875
20
6.871603125
30
0
0
VERTEX
8
0
10
2.277996875
20
6.44055625
30
0
0
VERTEX
8
0
10
2.259015625
20
6.369721875000001
30
0
42
0.4931453357944407
0
VERTEX
8
0
10
2.33261875
20
6.2738000000000005
30
0
0
VERTEX
8
0
10
2.4638
20
6.2738000000000005
30
0
0
VERTEX
8
0
10
2.4637968750000003
20
2.502890625
30
0
42
0.19891236737965798
0
VERTEX
8
0
10
2.486115625
20
2.449009375
30
0
0
VERTEX
8
0
10
2.57911875
20
2.356009375
30
0
0
VERTEX
8
0
10
2.768596875
20
1.898565625
30
0
0
VERTEX
8
0
10
2.768596875
20
1.75448125
30
0
42
0.8540842718840891
0
VERTEX
8
0
10
2.9172687500000003
20
1.7309343750000001
30
0
0
VERTEX
8
0
10
2.957665625
20
1.8552718750000001
30
0
0
VERTEX
8
0
10
3.0429625000000002
20
2.022678125
30
0
0
VERTEX
8
0
10
3.1534218750000003
20
2.174709375
30
0
0
VERTEX
8
0
10
3.2862875000000003
20
2.307575
30
0
0
VERTEX
8
0
10
3.43831875
20
2.418034375
30
0
0
VERTEX
8
0
10
3.605725
20
2.50333125
30
0
0
VERTEX
8
0
10
3.784453125
20
2.5614000000000003
30
0
0
VERTEX
8
0
10
3.9116
20
2.581540625
30
0
0
VERTEX
8
0
10
3.9116
20
1.4732125
30
0
42
0.4142135623730951
0
VERTEX
8
0
10
3.9878
20
1.3970125
30
0
0
VERTEX
8
0
10
4.14019375
20
1.3970125
30
0
42
0.4142135623730951
0
VERTEX
8
0
10
4.21639375
20
1.4732125
30
0
0
VERTEX
8
0
10
4.21639375
20
2.581540625
30
0
0
VERTEX
8
0
10
4.34354375
20
2.5614000000000003
30
0
0
VERTEX
8
0
10
4.522271875
20
2.50333125
30
0
0
VERTEX
8
0
10
4.689678125
20
2.418034375
30
0
0
VERTEX
8
0
10
4.841709375000001
20
2.307575
30
0
0
VERTEX
8
0
10
4.974575000000001
20
2.174709375
30
0
0
VERTEX
8
0
10
5.085034375
20
2.022678125
30
0
0
VERTEX
8
0
10
5.17033125
20
1.8552718750000001
30
0
0
VERTEX
8
0
10
5.210728125
20
1.73093125
30
0
42
0.8540842718840891
0
VERTEX
8
0
10
5.3594
20
1.754478125
30
0
0
VERTEX
8
0
10
5.3594
20
1.898565625
30
0
0
VERTEX
8
0
10
5.548878125
20
2.356009375
30
0
0
VERTEX
8
0
10
5.768881250000001
20
2.576009375
30
0
42
0.19891236737965798
0
VERTEX
8
0
10
5.7912
20
2.6298906250000003
30
0
0
VERTEX
8
0
10
5.7912
20
3.851575
30
0
42
0.19891236737965798
0
VERTEX
8
0
10
5.768881250000001
20
3.9054562500000003
30
0
0
VERTEX
8
0
10
4.5098
20
5.164534375000001
30
0
0
VERTEX
8
0
10
4.5098
20
6.143800000000001
30
0
42
0.4142135623730951
0
VERTEX
8
0
10
4.4336
20
6.220000000000001
30
0
0
VERTEX
8
0
10
4.216390625
20
6.220000000000001
30
0
0
VERTEX
8
0
10
4.216390625
20
6.474
30
0
0
VERTEX
8
0
10
4.564
20
6.474
30
0
0
VERTEX
8
0
10
4.564
20
7.574000000000001
30
0
0
VERTEX
8
0
10
3.564
20
7.574000000000001
30
0
0
VERTEX
8
0
10
3.564
20
7.176390625000001
30
0
0
VERTEX
8
0
10
3.31
20
7.176390625000001
30
0
0
VERTEX
8
0
10
3.31
20
7.607440625000001
30
0
0
VERTEX
8
0
10
3.327309375
20
7.6720375
30
0
0
VERTEX
8
0
10
3.3607500000000003
20
7.729959375
30
0
0
VERTEX
8
0
10
3.4149875
20
7.784196875
30
0
42
0.4142135623730951
0
VERTEX
8
0
10
3.4149875
20
7.891959375000001
30
0
0
VERTEX
8
0
10
3.2592000000000003
20
8.04774375
30
0
0
VERTEX
8
0
10
3.2592000000000003
20
9.400253125
30
0
0
VERTEX
8
0
10
3.43774375
20
9.578796875
30
0
0
VERTEX
8
0
10
3.556
20
9.578796875
30
0
42
0.4142135623730951
0
VERTEX
8
0
10
3.6322
20
9.654996875
30
0
0
VERTEX
8
0
10
3.6322
20
9.918700000000001
30
0
42
0.4142135623730951
0
VERTEX
8
0
10
3.556
20
9.994900000000001
30
0
0
VERTEX
8
0
10
3.327390625
20
9.994900000000001
30
0
0
VERTEX
8
0
10
3.327390625
20
10.2489
30
0
0
VERTEX
8
0
10
3.8354000000000004
20
10.2489
30
0
0
VERTEX
8
0
10
3.8354000000000004
20
11.239500000000001
30
0
0
VERTEX
8
0
10
2.5146
20
11.239500000000001
30
0
0
VERTEX
8
0
10
2.5146
20
10.8712
30
0
0
VERTEX
8
0
10
1.6509968750000001
20
10.8712
30
0
42
0.4142135623730951
0
VERTEX
8
0
10
1.574796875
20
10.795
30
0
0
VERTEX
8
0
10
1.574796875
20
9.654996875
30
0
42
0.4142135623730951
0
VERTEX
8
0
10
1.6509968750000001
20
9.578796875
30
0
0
VERTEX
8
0
10
2.1502531250000003
20
9.578796875
30
0
0
VERTEX
8
0
10
2.328796875
20
9.400253125
30
0
0
VERTEX
8
0
10
2.328796875
20
8.04774375
30
0
0
VERTEX
8
0
10
2.173009375
20
7.891959375000001
30
0
42
0.4142135623730951
0
VERTEX
8
0
10
2.173009375
20
7.784196875
30
0
0
VERTEX
8
0
10
2.227246875
20
7.729959375
30
0
0
VERTEX
8
0
10
2.2606875
20
7.6720375
30
0
0
VERTEX
8
0
10
2.277996875
20
7.607440625000001
30
0
0
VERTEX
8
0
10
2.277996875
20
7.176390625000001
30
0
0
VERTEX
8
0
10
2.024
20
7.176390625000001
30
0
0
VERTEX
8
0
10
2.024
20
7.574000000000001
30
0
0
SEQEND
0
POLYLINE
66
1
8
1_copper
10
0.0
20
0.0
30
0.0
70
1
0
VERTEX
8
0
10
2.48115625
20
9.994900000000001
30
0
0
VERTEX
8
0
10
2.4165593750000003
20
10.012209375000001
30
0
0
VERTEX
8
0
10
2.3586375
20
10.04565
30
0
0
VERTEX
8
0
10
2.31135
20
10.0929375
30
0
0
VERTEX
8
0
10
2.277909375
20
10.150859375000001
30
0
0
VERTEX
8
0
10
2.2606
20
10.21545625
30
0
0
VERTEX
8
0
10
2.2606
20
10.591803125
30
0
0
VERTEX
8
0
10
2.5146
20
10.591803125
30
0
0
VERTEX
8
0
10
2.5146
20
10.2489
30
0
0
VERTEX
8
0
10
3.0226031250000003
20
10.2489
30
0
0
VERTEX
8
0
10
3.0226031250000003
20
9.994900000000001
30
0
0
SEQEND
0
POLYLINE
66
1
8
1_copper
10
0.0
20
0.0
30
0.0
70
1
0
VERTEX
8
0
10
3.53055625
20
6.220000000000001
30
0
0
VERTEX
8
0
10
3.465959375
20
6.237309375000001
30
0
0
VERTEX
8
0
10
3.4080375000000003
20
6.2707500000000005
30
0
0
VERTEX
8
0
10
3.3607500000000003
20
6.3180375
30
0
0
VERTEX
8
0
10
3.327309375
20
6.375959375
30
0
0
VERTEX
8
0
10
3.31
20
6.44055625
30
0
0
VERTEX
8
0
10
3.31
20
6.871603125
30
0
0
VERTEX
8
0
10
3.564
20
6.871603125
30
0
0
VERTEX
8
0
10
3.564
20
6.474
30
0
0
VERTEX
8
0
10
3.911603125
20
6.474
30
0
0
VERTEX
8
0
10
3.911603125
20
6.220000000000001
30
0
0
SEQEND
0
POLYLINE
66
1
8
16_copper
10
0.0
20
0.0
30
0.0
70
1
0
VERTEX
8
0
10
4.1458125
20
1.397825
30
0
42
0.39258815634569955
0
VERTEX
8
0
10
4.21639375
20
1.4732125
30
0
0
VERTEX
8
0
10
4.21639375
20
2.581540625
30
0
0
VERTEX
8
0
10
4.34354375
20
2.5614000000000003
30
0
0
VERTEX
8
0
10
4.421453125
20
2.5360875000000003
30
0
42
0.5095228373976858
0
VERTEX
8
0
10
4.5212
20
2.608559375
30
0
0
VERTEX
8
0
10
4.5212
20
13.8938
30
0
0
VERTEX
8
0
10
4.8908000000000005
20
13.8938
30
0
42
0.4142135623730951
0
VERTEX
8
0
10
4.9670000000000005
20
13.97
30
0
0
VERTEX
8
0
10
4.9670000000000005
20
14.127815625
30
0
0
VERTEX
8
0
10
5.19018125
20
14.350996875
30
0
0
VERTEX
8
0
10
7.4278031250000005
20
14.350996875
30
0
42
0.6681891241430082
0
VERTEX
8
0
10
7.481684375
20
14.48108125
30
0
0
VERTEX
8
0
10
7.4230875
20
14.539675
30
0
0
VERTEX
8
0
10
7.323628125
20
14.688525
30
0
0
VERTEX
8
0
10
7.255121875
20
14.85391875
30
0
0
VERTEX
8
0
10
7.232709375000001
20
14.966600000000001
30
0
0
VERTEX
8
0
10
8.052784375
20
14.966600000000001
30
0
42
0.4142135623730951
0
VERTEX
8
0
10
8.128984375
20
15.042800000000002
30
0
0
VERTEX
8
0
10
8.128984375
20
15.1190125
30
0
0
VERTEX
8
0
10
8.205193750000001
20
15.1190125
30
0
42
0.4142135623730951
0
VERTEX
8
0
10
8.281393750000001
20
15.1952125
30
0
0
VERTEX
8
0
10
8.281393750000001
20
16.015290625000002
30
0
0
VERTEX
8
0
10
8.394078125
20
15.992875000000002
30
0
0
VERTEX
8
0
10
8.559471875
20
15.924368750000001
30
0
0
VERTEX
8
0
10
8.70833125
20
15.824903125
30
0
0
VERTEX
8
0
10
8.834903125
20
15.69833125
30
0
0
VERTEX
8
0
10
8.925709375
20
15.562428125
30
0
42
0.5993858538060083
0
VERTEX
8
0
10
9.05946875
20
15.575603125
30
0
0
VERTEX
8
0
10
9.095490625
20
15.66256875
30
0
0
VERTEX
8
0
10
9.365428125000001
20
15.932506250000001
30
0
0
VERTEX
8
0
10
9.554159375000001
20
16.010678125000002
30
0
42
0.3033508535501127
0
VERTEX
8
0
10
9.6012
20
16.081078125
30
0
0
VERTEX
8
0
10
9.6012
20
16.4338
30
0
0
VERTEX
8
0
10
12.7525875
20
16.4338
30
0
42
0.6681786379192989
0
VERTEX
8
0
10
12.80646875
20
16.56388125
30
0
0
VERTEX
8
0
10
11.790465625000001
20
17.57988125
30
0
42
0.19891236737965798
0
VERTEX
8
0
10
11.736584375000001
20
17.6022
30
0
0
VERTEX
8
0
10
8.511509375000001
20
17.6022
30
0
42
0.19891236737965798
0
VERTEX
8
0
10
8.457628125000001
20
17.57988125
30
0
0
VERTEX
8
0
10
8.2896625
20
17.411915625000002
30
0
0
VERTEX
8
0
10
8.0199625
20
17.3002
30
0
0
VERTEX
8
0
10
7.728034375
20
17.3002
30
0
0
VERTEX
8
0
10
7.458334375000001
20
17.411915625000002
30
0
0
VERTEX
8
0
10
7.2519156250000005
20
17.618334375
30
0
0
VERTEX
8
0
10
7.1402
20
17.888034375
30
0
0
VERTEX
8
0
10
7.1402
20
18.179962500000002
30
0
0
VERTEX
8
0
10
7.2519156250000005
20
18.449662500000002
30
0
0
VERTEX
8
0
10
7.458334375000001
20
18.65608125
30
0
0
VERTEX
8
0
10
7.728034375
20
18.767796875000002
30
0
0
VERTEX
8
0
10
8.0199625
20
18.767796875000002
30
0
0
VERTEX
8
0
10
8.2896625
20
18.65608125
30
0
0
VERTEX
8
0
10
8.457628125000001
20
18.488115625000002
30
0
42
0.19891236737965798
0
VERTEX
8
0
10
8.511509375000001
20
18.465796875000002
30
0
0
VERTEX
8
0
10
12.1258625
20
18.465796875000002
30
0
0
VERTEX
8
0
10
14.135540625
20
16.45611875
30
0
42
0.19891236737965798
0
VERTEX
8
0
10
14.189421875
20
16.4338
30
0
0
VERTEX
8
0
10
22.225
20
16.4338
30
0
42
0.4142135623730951
0
VERTEX
8
0
10
22.3012
20
16.51
30
0
0
VERTEX
8
0
10
22.3012
20
20.32
30
0
42
0.4142135623730951
0
VERTEX
8
0
10
22.225
20
20.3962
30
0
0
VERTEX
8
0
10
4.889706250000001
20
20.3962
30
0
42
0.683230390744418
0
VERTEX
8
0
10
4.838096875000001
20
20.2639375
30
0
0
VERTEX
8
0
10
5.2473375
20
19.887203125
30
0
0
VERTEX
8
0
10
5.784859375
20
18.893956250000002
30
0
0
VERTEX
8
0
10
5.9707437500000005
20
17.78
30
0
0
VERTEX
8
0
10
5.784859375
20
16.666040625
30
0
0
VERTEX
8
0
10
5.247334375
20
15.6727875
30
0
0
VERTEX
8
0
10
4.416440625
20
14.907893750000001
30
0
0
VERTEX
8
0
10
3.382203125
20
14.454234375
30
0
0
VERTEX
8
0
10
2.2566875
20
14.360971875
30
0
0
VERTEX
8
0
10
1.9237062500000002
20
14.445296875
30
0
42
0.48887077048724886
0
VERTEX
8
0
10
1.8288
20
14.371428125000001
30
0
0
VERTEX
8
0
10
1.8288
20
2.922803125
30
0
42
0.3033508535501127
0
VERTEX
8
0
10
1.8758406250000002
20
2.852403125
30
0
0
VERTEX
8
0
10
2.229009375
20
2.7061187500000004
30
0
0
VERTEX
8
0
10
2.57911875
20
2.356009375
30
0
0
VERTEX
8
0
10
2.768596875
20
1.898565625
30
0
0
VERTEX
8
0
10
2.768596875
20
1.754475
30
0
42
0.8541011356728186
0
VERTEX
8
0
10
2.9172687500000003
20
1.73093125
30
0
0
VERTEX
8
0
10
2.957665625
20
1.85526875
30
0
0
VERTEX
8
0
10
3.0429625000000002
20
2.022678125
30
0
0
VERTEX
8
0
10
3.1534218750000003
20
2.174709375
30
0
0
VERTEX
8
0
10
3.2862875000000003
20
2.307575
30
0
0
VERTEX
8
0
10
3.43831875
20
2.418034375
30
0
0
VERTEX
8
0
10
3.605725
20
2.50333125
30
0
0
VERTEX
8
0
10
3.784453125
20
2.5614000000000003
30
0
0
VERTEX
8
0
10
3.9116
20
2.581540625
30
0
0
VERTEX
8
0
10
3.9116
20
1.4732125
30
0
42
0.4142135623730951
0
VERTEX
8
0
10
3.9878
20
1.3970125
30
0
0
VERTEX
8
0
10
4.14019375
20
1.3970125
30
0
0
SEQEND
0
POLYLINE
66
1
8
16_copper
10
0.0
20
0.0
30
0.0
70
1
0
VERTEX
8
0
10
7.232706250000001
20
15.271393750000001
30
0
0
VERTEX
8
0
10
7.255121875
20
15.384078125
30
0
0
VERTEX
8
0
10
7.323628125
20
15.549471875
30
0
0
VERTEX
8
0
10
7.4230937500000005
20
15.69833125
30
0
0
VERTEX
8
0
10
7.549665625
20
15.824903125
30
0
0
VERTEX
8
0
10
7.698525
20
15.924368750000001
30
0
0
VERTEX
8
0
10
7.863918750000001
20
15.992875000000002
30
0
0
VERTEX
8
0
10
7.9766
20
16.0152875
30
0
0
VERTEX
8
0
10
7.9766
20
15.271393750000001
30
0
0
SEQEND
0
POLYLINE
66
1
8
1_copper
10
0.0
20
0.0
30
0.0
70
1
0
VERTEX
8
0
10
4.564
20
9.274000000000001
30
0
0
VERTEX
8
0
10
4.191
20
9.274000000000001
30
0
0
VERTEX
8
0
10
4.191
20
9.957918750000001
30
0
0
VERTEX
8
0
10
4.255403125
20
10.022321875000001
30
0
42
0.19891236737965798
0
VERTEX
8
0
10
4.2926
20
10.112125
30
0
0
VERTEX
8
0
10
4.2926
20
11.6332
30
0
42
0.19891236737965798
0
VERTEX
8
0
10
4.255403125
20
11.723003125
30
0
0
VERTEX
8
0
10
3.8354000000000004
20
12.143006250000001
30
0
0
VERTEX
8
0
10
3.8354000000000004
20
13.119100000000001
30
0
0
VERTEX
8
0
10
3.302
20
13.119100000000001
30
0
0
VERTEX
8
0
10
3.302
20
13.28239375
30
0
0
VERTEX
8
0
10
7.6738156250000005
20
17.654209375
30
0
42
0.9493247675439374
0
VERTEX
8
0
10
8.11285
20
18.391465625000002
30
0
0
VERTEX
8
0
10
8.06415
20
18.419584375
30
0
42
0.7268320859172499
0
VERTEX
8
0
10
7.4942093750000005
20
17.833815625
30
0
0
VERTEX
8
0
10
3.0851968750000003
20
13.424803125
30
0
42
0.19891236737965798
0
VERTEX
8
0
10
3.048
20
13.335
30
0
0
VERTEX
8
0
10
3.048
20
13.119100000000001
30
0
0
VERTEX
8
0
10
2.5146
20
13.119100000000001
30
0
0
VERTEX
8
0
10
2.5146
20
12.1285
30
0
0
VERTEX
8
0
10
3.49069375
20
12.1285
30
0
0
VERTEX
8
0
10
4.038600000000001
20
11.58059375
30
0
0
VERTEX
8
0
10
4.038600000000001
20
10.16473125
30
0
0
VERTEX
8
0
10
3.974196875
20
10.100328125
30
0
42
0.19891236737965798
0
VERTEX
8
0
10
3.9370000000000003
20
10.010525000000001
30
0
0
VERTEX
8
0
10
3.9370000000000003
20
9.274000000000001
30
0
0
VERTEX
8
0
10
3.564
20
9.274000000000001
30
0
0
VERTEX
8
0
10
3.564
20
8.174000000000001
30
0
0
VERTEX
8
0
10
4.564
20
8.174000000000001
30
0
0
SEQEND
0
POLYLINE
66
1
8
1_copper
10
0.0
20
0.0
30
0.0
70
1
0
VERTEX
8
0
10
15.289475000000001
20
14.998621875000001
30
0
42
0.5566825818421984
0
VERTEX
8
0
10
15.338803125
20
15.208803125000001
30
0
0
VERTEX
8
0
10
14.986
20
15.56160625
30
0
0
VERTEX
8
0
10
14.986
20
16.634
30
0
0
VERTEX
8
0
10
15.359
20
16.634
30
0
0
VERTEX
8
0
10
15.359
20
17.734
30
0
0
VERTEX
8
0
10
14.359
20
17.734
30
0
0
VERTEX
8
0
10
14.359
20
16.634
30
0
0
VERTEX
8
0
10
14.732000000000001
20
16.634
30
0
0
VERTEX
8
0
10
14.732000000000001
20
15.509
30
0
42
0.19891236737965798
0
VERTEX
8
0
10
14.769196875
20
15.419196875
30
0
0
VERTEX
8
0
10
15.159196875000001
20
15.029196875
30
0
0
VERTEX
8
0
10
15.181168750000001
20
15.01163125
30
0
0
VERTEX
8
0
10
15.20646875
20
14.999334375
30
0
0
VERTEX
8
0
10
15.233853125000001
20
14.99290625
30
0
0
VERTEX
8
0
10
15.261984375
20
14.992665625
30
0
0
SEQEND
0
POLYLINE
66
1
8
16_copper
10
0.0
20
0.0
30
0.0
70
1
0
VERTEX
8
0
10
15.276956250000001
20
14.995115625
30
0
42
0.8947582755259743
0
VERTEX
8
0
10
15.249
20
15.246
30
0
0
VERTEX
8
0
10
14.9146125
20
15.246
30
0
0
VERTEX
8
0
10
12.036809375
20
18.123803125000002
30
0
42
0.19891236737965798
0
VERTEX
8
0
10
11.947006250000001
20
18.161
30
0
0
VERTEX
8
0
10
8.284103125
20
18.161
30
0
42
0.9493229116822237
0
VERTEX
8
0
10
7.452340625000001
20
17.950128125
30
0
0
VERTEX
8
0
10
7.466896875000001
20
17.89580625
30
0
42
0.7268310812031208
0
VERTEX
8
0
10
8.284103125
20
17.907
30
0
0
VERTEX
8
0
10
11.894400000000001
20
17.907
30
0
0
VERTEX
8
0
10
14.772203125
20
15.029196875
30
0
42
0.19891236737965798
0
VERTEX
8
0
10
14.86200625
20
14.992
30
0
0
VERTEX
8
0
10
15.249
20
14.992
30
0
0
SEQEND
0
POLYLINE
66
1
8
1_copper
10
0.0
20
0.0
30
0.0
70
1
0
VERTEX
8
0
10
1.564475
20
1.530621875
30
0
42
0.5566825818421984
0
VERTEX
8
0
10
1.613803125
20
1.740803125
30
0
0
VERTEX
8
0
10
0.8208000000000001
20
2.53380625
30
0
0
VERTEX
8
0
10
0.8208000000000001
20
7.658168750000001
30
0
0
VERTEX
8
0
10
1.3366312500000002
20
8.174000000000001
30
0
0
VERTEX
8
0
10
2.024
20
8.174000000000001
30
0
0
VERTEX
8
0
10
2.024
20
9.274000000000001
30
0
0
VERTEX
8
0
10
1.27
20
9.274000000000001
30
0
0
VERTEX
8
0
10
1.27
20
11.1887
30
0
0
VERTEX
8
0
10
1.8034000000000001
20
11.1887
30
0
0
VERTEX
8
0
10
1.8034000000000001
20
12.179300000000001
30
0
0
VERTEX
8
0
10
1.27
20
12.179300000000001
30
0
0
VERTEX
8
0
10
1.27
20
12.52039375
30
0
0
VERTEX
8
0
10
7.50660625
20
18.757
30
0
0
VERTEX
8
0
10
9.279
20
18.757
30
0
0
VERTEX
8
0
10
9.279
20
18.334
30
0
0
VERTEX
8
0
10
10.279
20
18.334
30
0
0
VERTEX
8
0
10
10.279
20
18.757
30
0
0
VERTEX
8
0
10
10.566393750000001
20
18.757
30
0
0
VERTEX
8
0
10
11.819
20
17.504393750000002
30
0
0
VERTEX
8
0
10
11.819
20
16.634
30
0
0
VERTEX
8
0
10
12.68939375
20
16.634
30
0
0
VERTEX
8
0
10
13.342
20
15.98139375
30
0
0
VERTEX
8
0
10
13.342
20
15.119000000000002
30
0
42
0.8794486188809765
0
VERTEX
8
0
10
13.591853125
20
15.086815625
30
0
0
VERTEX
8
0
10
13.596
20
15.119000000000002
30
0
0
VERTEX
8
0
10
13.596
20
16.034000000000002
30
0
42
0.19891236737965798
0
VERTEX
8
0
10
13.558803125
20
16.123803125000002
30
0
0
VERTEX
8
0
10
12.819
20
16.86360625
30
0
0
VERTEX
8
0
10
12.819
20
17.734
30
0
0
VERTEX
8
0
10
11.948606250000001
20
17.734
30
0
0
VERTEX
8
0
10
10.708803125000001
20
18.973803125
30
0
42
0.19891236737965798
0
VERTEX
8
0
10
10.619
20
19.011
30
0
0
VERTEX
8
0
10
10.279
20
19.011
30
0
0
VERTEX
8
0
10
10.279
20
19.434
30
0
0
VERTEX
8
0
10
9.279
20
19.434
30
0
0
VERTEX
8
0
10
9.279
20
19.011
30
0
0
VERTEX
8
0
10
7.454000000000001
20
19.011
30
0
42
0.19891236737965798
0
VERTEX
8
0
10
7.364196875
20
18.973803125
30
0
0
VERTEX
8
0
10
1.053196875
20
12.662803125
30
0
42
0.19891236737965798
0
VERTEX
8
0
10
1.016
20
12.573
30
0
0
VERTEX
8
0
10
1.016
20
12.179300000000001
30
0
0
VERTEX
8
0
10
0.48260000000000003
20
12.179300000000001
30
0
0
VERTEX
8
0
10
0.48260000000000003
20
11.1887
30
0
0
VERTEX
8
0
10
1.016
20
11.1887
30
0
0
VERTEX
8
0
10
1.016
20
9.105
30
0
42
0.08695678031726696
0
VERTEX
8
0
10
1.024
20
9.061971875000001
30
0
0
VERTEX
8
0
10
1.024
20
8.22058125
30
0
0
VERTEX
8
0
10
0.603996875
20
7.800578125
30
0
42
0.19891236737965798
0
VERTEX
8
0
10
0.5668000000000001
20
7.710775
30
0
0
VERTEX
8
0
10
0.5668000000000001
20
2.4812000000000003
30
0
42
0.19891236737965798
0
VERTEX
8
0
10
0.603996875
20
2.3913968750000003
30
0
0
VERTEX
8
0
10
1.434196875
20
1.561196875
30
0
0
VERTEX
8
0
10
1.45616875
20
1.54363125
30
0
0
VERTEX
8
0
10
1.4814687500000001
20
1.5313343750000001
30
0
0
VERTEX
8
0
10
1.5088531250000001
20
1.5249062500000001
30
0
0
VERTEX
8
0
10
1.536984375
20
1.5246656250000001
30
0
0
SEQEND
0
POLYLINE
66
1
8
1_copper
10
0.0
20
0.0
30
0.0
70
1
0
VERTEX
8
0
10
21.028737500000002
20
3.327603125
30
0
42
0.1878389704295834
0
VERTEX
8
0
10
21.113140625
20
3.364196875
30
0
0
VERTEX
8
0
10
23.104203125
20
5.355259375
30
0
42
0.19891236737965798
0
VERTEX
8
0
10
23.1414
20
5.445062500000001
30
0
0
VERTEX
8
0
10
23.1414
20
17.960575000000002
30
0
42
0.19891236737965798
0
VERTEX
8
0
10
23.104203125
20
18.050378125
30
0
0
VERTEX
8
0
10
21.300578125
20
19.854003125000002
30
0
42
0.19891236737965798
0
VERTEX
8
0
10
21.210775
20
19.8912
30
0
0
VERTEX
8
0
10
16.762225
20
19.8912
30
0
42
0.19891236737965798
0
VERTEX
8
0
10
16.672421875
20
19.854003125000002
30
0
0
VERTEX
8
0
10
15.82941875
20
19.011
30
0
0
VERTEX
8
0
10
15.359
20
19.011
30
0
0
VERTEX
8
0
10
15.359
20
19.434
30
0
0
VERTEX
8
0
10
14.359
20
19.434
30
0
0
VERTEX
8
0
10
14.359
20
18.334
30
0
0
VERTEX
8
0
10
15.359
20
18.334
30
0
0
VERTEX
8
0
10
15.359
20
18.757
30
0
0
VERTEX
8
0
10
15.882025
20
18.757
30
0
42
0.19891236737965798
0
VERTEX
8
0
10
15.971828125
20
18.794196875
30
0
0
VERTEX
8
0
10
16.81483125
20
19.6372
30
0
0
VERTEX
8
0
10
21.15816875
20
19.6372
30
0
0
VERTEX
8
0
10
22.8874
20
17.907968750000002
30
0
0
VERTEX
8
0
10
22.8874
20
5.49766875
30
0
0
VERTEX
8
0
10
20.97073125
20
3.581
30
0
0
VERTEX
8
0
10
19.343600000000002
20
3.581
30
0
0
VERTEX
8
0
10
18.395796875000002
20
4.5288031250000005
30
0
42
0.19891236737965798
0
VERTEX
8
0
10
18.305993750000003
20
4.566
30
0
0
VERTEX
8
0
10
17.919
20
4.566
30
0
42
0.8794486188809765
0
VERTEX
8
0
10
17.886815625
20
4.316146875
30
0
0
VERTEX
8
0
10
17.919
20
4.312
30
0
0
VERTEX
8
0
10
18.253387500000002
20
4.312
30
0
0
VERTEX
8
0
10
19.201190625000002
20
3.364196875
30
0
42
0.19891236737965798
0
VERTEX
8
0
10
19.290993750000002
20
3.327
30
0
0
VERTEX
8
0
10
21.0233375
20
3.327
30
0
0
SEQEND
0
POLYLINE
66
1
8
16_copper
10
0.0
20
0.0
30
0.0
70
1
0
VERTEX
8
0
10
19.344475
20
1.276621875
30
0
42
0.5566825818421984
0
VERTEX
8
0
10
19.393803125
20
1.486803125
30
0
0
VERTEX
8
0
10
17.336803125
20
3.543803125
30
0
42
0.19891236737965798
0
VERTEX
8
0
10
17.247
20
3.581
30
0
0
VERTEX
8
0
10
15.783600000000002
20
3.581
30
0
0
VERTEX
8
0
10
14.835796875000002
20
4.5288031250000005
30
0
42
0.19891236737965798
0
VERTEX
8
0
10
14.74599375
20
4.566
30
0
0
VERTEX
8
0
10
14.359
20
4.566
30
0
42
0.8794486188809765
0
VERTEX
8
0
10
14.326815625
20
4.316146875
30
0
0
VERTEX
8
0
10
14.359
20
4.312
30
0
0
VERTEX
8
0
10
14.6933875
20
4.312
30
0
0
VERTEX
8
0
10
15.641190625
20
3.364196875
30
0
42
0.19891236737965798
0
VERTEX
8
0
10
15.730993750000001
20
3.327
30
0
0
VERTEX
8
0
10
17.19439375
20
3.327
30
0
0
VERTEX
8
0
10
19.214196875000003
20
1.307196875
30
0
0
VERTEX
8
0
10
19.23616875
20
1.28963125
30
0
0
VERTEX
8
0
10
19.261468750000002
20
1.2773343750000001
30
0
0
VERTEX
8
0
10
19.288853125
20
1.2709062500000001
30
0
0
VERTEX
8
0
10
19.316984375
20
1.2706656250000001
30
0
0
SEQEND
0
POLYLINE
66
1
8
1_copper
10
0.0
20
0.0
30
0.0
70
1
0
VERTEX
8
0
10
16.7758875
20
1.524675
30
0
42
0.17463654308670123
0
VERTEX
8
0
10
16.853803125000002
20
1.561196875
30
0
0
VERTEX
8
0
10
17.984606250000002
20
2.692
30
0
0
VERTEX
8
0
10
21.150337500000003
20
2.692
30
0
42
0.19891236737965798
0
VERTEX
8
0
10
21.240140625000002
20
2.729196875
30
0
0
VERTEX
8
0
10
23.561403125000002
20
5.050459375
30
0
42
0.19891236737965798
0
VERTEX
8
0
10
23.5986
20
5.1402625
30
0
0
VERTEX
8
0
10
23.5986
20
18.149956250000002
30
0
42
0.19891236737965798
0
VERTEX
8
0
10
23.561403125000002
20
18.239759375000002
30
0
0
VERTEX
8
0
10
21.489959375
20
20.311203125000002
30
0
42
0.19891236737965798
0
VERTEX
8
0
10
21.400156250000002
20
20.3484
30
0
0
VERTEX
8
0
10
14.679425
20
20.3484
30
0
42
0.19891236737965798
0
VERTEX
8
0
10
14.589621875
20
20.311203125000002
30
0
0
VERTEX
8
0
10
13.289418750000001
20
19.011
30
0
0
VERTEX
8
0
10
12.819
20
19.011
30
0
0
VERTEX
8
0
10
12.819
20
19.434
30
0
0
VERTEX
8
0
10
11.819
20
19.434
30
0
0
VERTEX
8
0
10
11.819
20
18.334
30
0
0
VERTEX
8
0
10
12.819
20
18.334
30
0
0
VERTEX
8
0
10
12.819
20
18.757
30
0
0
VERTEX
8
0
10
13.342025000000001
20
18.757
30
0
42
0.19891236737965798
0
VERTEX
8
0
10
13.431828125000001
20
18.794196875
30
0
0
VERTEX
8
0
10
14.73203125
20
20.0944
30
0
0
VERTEX
8
0
10
21.347550000000002
20
20.0944
30
0
0
VERTEX
8
0
10
23.3446
20
18.097350000000002
30
0
0
VERTEX
8
0
10
23.3446
20
5.192868750000001
30
0
0
VERTEX
8
0
10
21.097731250000002
20
2.946
30
0
0
VERTEX
8
0
10
17.932000000000002
20
2.946
30
0
42
0.19891236737965798
0
VERTEX
8
0
10
17.842196875000003
20
2.908803125
30
0
0
VERTEX
8
0
10
16.764
20
1.83060625
30
0
0
VERTEX
8
0
10
15.837803125
20
2.7568031250000002
30
0
42
0.19891236737965798
0
VERTEX
8
0
10
15.748000000000001
20
2.794
30
0
0
VERTEX
8
0
10
14.53060625
20
2.794
30
0
0
VERTEX
8
0
10
12.795803125
20
4.5288031250000005
30
0
42
0.19891236737965798
0
VERTEX
8
0
10
12.706000000000001
20
4.566
30
0
0
VERTEX
8
0
10
12.579
20
4.566
30
0
42
0.8794486188809765
0
VERTEX
8
0
10
12.546815625
20
4.316146875
30
0
0
VERTEX
8
0
10
12.579
20
4.312
30
0
0
VERTEX
8
0
10
12.653393750000001
20
4.312
30
0
0
VERTEX
8
0
10
14.388196875
20
2.5771968750000003
30
0
42
0.19891236737965798
0
VERTEX
8
0
10
14.478000000000002
20
2.54
30
0
0
VERTEX
8
0
10
15.695393750000001
20
2.54
30
0
0
VERTEX
8
0
10
16.674196875
20
1.561196875
30
0
0
VERTEX
8
0
10
16.68434375
20
1.553084375
30
0
0
VERTEX
8
0
10
16.694340625000002
20
1.544809375
30
0
0
VERTEX
8
0
10
16.6953125
20
1.544315625
30
0
0
VERTEX
8
0
10
16.696168750000002
20
1.54363125
30
0
0
VERTEX
8
0
10
16.7078125
20
1.537971875
30
0
0
VERTEX
8
0
10
16.719425
20
1.5320781250000002
30
0
0
VERTEX
8
0
10
16.72049375
20
1.53180625
30
0
0
VERTEX
8
0
10
16.72146875
20
1.5313343750000001
30
0
0
VERTEX
8
0
10
16.734059375
20
1.5283781250000001
30
0
0
VERTEX
8
0
10
16.746696875
20
1.525184375
30
0
0
VERTEX
8
0
10
16.7477875
20
1.52515625
30
0
0
VERTEX
8
0
10
16.748853125
20
1.5249062500000001
30
0
0
VERTEX
8
0
10
16.76186875
20
1.5247937500000002
30
0
0
VERTEX
8
0
10
16.77481875
20
1.5244625
30
0
0
SEQEND
0
POLYLINE
66
1
8
1_copper
10
0.0
20
0.0
30
0.0
70
1
0
VERTEX
8
0
10
14.251956250000001
20
1.273115625
30
0
42
0.8947582755259743
0
VERTEX
8
0
10
14.224
20
1.524
30
0
0
VERTEX
8
0
10
13.893606250000001
20
1.524
30
0
0
VERTEX
8
0
10
10.888803125
20
4.5288031250000005
30
0
42
0.9999999999999999
0
VERTEX
8
0
10
10.709196875
20
4.3491968750000005
30
0
0
VERTEX
8
0
10
13.751196875000002
20
1.307196875
30
0
42
0.19891236737965798
0
VERTEX
8
0
10
13.841000000000001
20
1.27
30
0
0
VERTEX
8
0
10
14.224
20
1.27
30
0
0
SEQEND
0
POLYLINE
66
1
8
1_copper
10
0.0
20
0.0
30
0.0
70
1
0
VERTEX
8
0
10
11.70983125
20
1.52665625
30
0
42
0.35541675367152875
0
VERTEX
8
0
10
11.811
20
1.651
30
0
0
VERTEX
8
0
10
11.811
20
1.774
30
0
42
0.19891236737965798
0
VERTEX
8
0
10
11.773803125
20
1.863803125
30
0
0
VERTEX
8
0
10
9.108803125
20
4.5288031250000005
30
0
42
0.9999999999999999
0
VERTEX
8
0
10
8.929196875
20
4.3491968750000005
30
0
0
VERTEX
8
0
10
11.557
20
1.72139375
30
0
0
VERTEX
8
0
10
11.557
20
1.651
30
0
0
VERTEX
8
0
10
11.560115625
20
1.6230437500000001
30
0
0
VERTEX
8
0
10
11.569309375000001
20
1.5964562500000001
30
0
0
VERTEX
8
0
10
11.584128125000001
20
1.572546875
30
0
0
VERTEX
8
0
10
11.603850000000001
20
1.5524875
30
0
0
VERTEX
8
0
10
11.627500000000001
20
1.537259375
30
0
0
VERTEX
8
0
10
11.653925000000001
20
1.5276125
30
0
0
VERTEX
8
0
10
11.681825
20
1.52401875
30
0
0
SEQEND
0
POLYLINE
66
1
8
1_copper
10
0.0
20
0.0
30
0.0
70
1
0
VERTEX
8
0
10
9.16983125
20
1.27265625
30
0
42
0.35541675367152875
0
VERTEX
8
0
10
9.271
20
1.397
30
0
0
VERTEX
8
0
10
9.271
20
2.5340000000000003
30
0
42
0.19891236737965798
0
VERTEX
8
0
10
9.233803125
20
2.6238031250000002
30
0
0
VERTEX
8
0
10
7.328803125
20
4.5288031250000005
30
0
42
0.9999999999999999
0
VERTEX
8
0
10
7.149196875
20
4.3491968750000005
30
0
0
VERTEX
8
0
10
9.017000000000001
20
2.48139375
30
0
0
VERTEX
8
0
10
9.017000000000001
20
1.397
30
0
0
VERTEX
8
0
10
9.020115625
20
1.3690437500000001
30
0
0
VERTEX
8
0
10
9.029309375
20
1.3424562500000001
30
0
0
VERTEX
8
0
10
9.044128125
20
1.318546875
30
0
0
VERTEX
8
0
10
9.06385
20
1.2984875
30
0
0
VERTEX
8
0
10
9.0875
20
1.283259375
30
0
0
VERTEX
8
0
10
9.113925
20
1.2736125
30
0
0
VERTEX
8
0
10
9.141825
20
1.27001875
30
0
0
SEQEND
0
POLYLINE
66
1
8
1_copper
10
0.0
20
0.0
30
0.0
70
1
0
VERTEX
8
0
10
6.6298312500000005
20
1.52665625
30
0
42
0.35541675367152875
0
VERTEX
8
0
10
6.731000000000001
20
1.651
30
0
0
VERTEX
8
0
10
6.731000000000001
20
3.6809937500000003
30
0
42
0.19891236737965798
0
VERTEX
8
0
10
6.6938031250000005
20
3.7707968750000003
30
0
0
VERTEX
8
0
10
5.0686
20
5.396
30
0
0
VERTEX
8
0
10
5.0686
20
14.08573125
30
0
0
VERTEX
8
0
10
6.95986875
20
15.977
30
0
0
VERTEX
8
0
10
8.4844
20
15.977
30
0
0
VERTEX
8
0
10
9.432203125000001
20
15.029196875
30
0
42
0.19891236737965798
0
VERTEX
8
0
10
9.52200625
20
14.992
30
0
0
VERTEX
8
0
10
9.909
20
14.992
30
0
42
0.4142135623730951
0
VERTEX
8
0
10
10.036000000000001
20
15.119000000000002
30
0
0
VERTEX
8
0
10
10.036000000000001
20
16.634
30
0
0
VERTEX
8
0
10
10.279
20
16.634
30
0
0
VERTEX
8
0
10
10.279
20
17.734
30
0
0
VERTEX
8
0
10
9.279
20
17.734
30
0
0
VERTEX
8
0
10
9.279
20
16.634
30
0
0
VERTEX
8
0
10
9.782
20
16.634
30
0
0
VERTEX
8
0
10
9.782
20
15.246
30
0
0
VERTEX
8
0
10
9.5746125
20
15.246
30
0
0
VERTEX
8
0
10
8.626809375
20
16.193803125000002
30
0
42
0.19891236737965798
0
VERTEX
8
0
10
8.537006250000001
20
16.231
30
0
0
VERTEX
8
0
10
6.907262500000001
20
16.231
30
0
42
0.19891236737965798
0
VERTEX
8
0
10
6.817459375
20
16.193803125000002
30
0
0
VERTEX
8
0
10
4.851796875000001
20
14.228140625
30
0
42
0.19891236737965798
0
VERTEX
8
0
10
4.8146
20
14.1383375
30
0
0
VERTEX
8
0
10
4.8146
20
5.343393750000001
30
0
42
0.19891236737965798
0
VERTEX
8
0
10
4.851796875000001
20
5.253590625
30
0
0
VERTEX
8
0
10
6.477
20
3.6283875
30
0
0
VERTEX
8
0
10
6.477
20
1.651
30
0
0
VERTEX
8
0
10
6.480115625000001
20
1.6230437500000001
30
0
0
VERTEX
8
0
10
6.489309375
20
1.5964562500000001
30
0
0
VERTEX
8
0
10
6.504128125
20
1.572546875
30
0
0
VERTEX
8
0
10
6.52385
20
1.5524875
30
0
0
VERTEX
8
0
10
6.5475
20
1.537259375
30
0
0
VERTEX
8
0
10
6.573925
20
1.5276125
30
0
0
VERTEX
8
0
10
6.601825000000001
20
1.52401875
30
0
0
SEQEND
0
POLYLINE
66
1
8
1_copper
10
0.0
20
0.0
30
0.0
70
1
0
VERTEX
8
0
10
17.067409375
20
14.997946875
30
0
42
0.12011069746328462
0
VERTEX
8
0
10
17.118803125
20
15.029196875
30
0
0
VERTEX
8
0
10
17.488803125
20
15.399196875000001
30
0
42
0.19891236737965798
0
VERTEX
8
0
10
17.526
20
15.489
30
0
0
VERTEX
8
0
10
17.526
20
16.634
30
0
0
VERTEX
8
0
10
17.899
20
16.634
30
0
0
VERTEX
8
0
10
17.899
20
17.057000000000002
30
0
0
VERTEX
8
0
10
19.439
20
17.057000000000002
30
0
0
VERTEX
8
0
10
19.439
20
16.634
30
0
0
VERTEX
8
0
10
20.439
20
16.634
30
0
0
VERTEX
8
0
10
20.439
20
17.734
30
0
0
VERTEX
8
0
10
19.439
20
17.734
30
0
0
VERTEX
8
0
10
19.439
20
17.311
30
0
0
VERTEX
8
0
10
17.899
20
17.311
30
0
0
VERTEX
8
0
10
17.899
20
17.734
30
0
0
VERTEX
8
0
10
16.899
20
17.734
30
0
0
VERTEX
8
0
10
16.899
20
16.634
30
0
0
VERTEX
8
0
10
17.272000000000002
20
16.634
30
0
0
VERTEX
8
0
10
17.272000000000002
20
15.541606250000001
30
0
0
VERTEX
8
0
10
16.939196875
20
15.208803125000001
30
0
0
VERTEX
8
0
10
16.92163125
20
15.186831250000001
30
0
0
VERTEX
8
0
10
16.909334375
20
15.161531250000001
30
0
0
VERTEX
8
0
10
16.90290625
20
15.134146875
30
0
0
VERTEX
8
0
10
16.902665625
20
15.106015625000001
30
0
0
VERTEX
8
0
10
16.908621875
20
15.078525
30
0
0
VERTEX
8
0
10
16.920484375
20
15.053018750000001
30
0
0
VERTEX
8
0
10
16.937671875
20
15.030746875
30
0
0
VERTEX
8
0
10
16.959340625
20
15.012809375000002
30
0
0
VERTEX
8
0
10
16.984425
20
15.000078125
30
0
0
VERTEX
8
0
10
17.011696875000002
20
14.993184375
30
0
0
VERTEX
8
0
10
17.039818750000002
20
14.9924625
30
0
0
SEQEND
0
CIRCLE
8
drills_NPTH
10
2.54
20
17.78
30
0
40
1.5
0
CIRCLE
8
drills_NPTH
10
24.130000000000003
20
2.54
30
0
40
1.5
0
CIRCLE
8
drills_PTH
10
1.524
20
1.651
30
0
40
0.508
0
CIRCLE
8
drills_PTH
10
4.064
20
1.397
30
0
40
0.508
0
CIRCLE
8
drills_PTH
10
6.604
20
1.651
30
0
40
0.508
0
CIRCLE
8
drills_PTH
10
9.144
20
1.397
30
0
40
0.508
0
CIRCLE
8
drills_PTH
10
11.684000000000001
20
1.651
30
0
40
0.508
0
CIRCLE
8
drills_PTH
10
14.224
20
1.397
30
0
40
0.508
0
CIRCLE
8
drills_PTH
10
16.764
20
1.651
30
0
40
0.508
0
CIRCLE
8
drills_PTH
10
19.304000000000002
20
1.397
30
0
40
0.508
0
CIRCLE
8
drills_PTH
10
20.589000000000002
20
15.119000000000002
30
0
40
0.35000000000000003
0
CIRCLE
8
drills_PTH
10
18.809
20
15.119000000000002
30
0
40
0.35000000000000003
0
CIRCLE
8
drills_PTH
10
17.029
20
15.119000000000002
30
0
40
0.35000000000000003
0
CIRCLE
8
drills_PTH
10
15.249
20
15.119000000000002
30
0
40
0.35000000000000003
0
CIRCLE
8
drills_PTH
10
13.469000000000001
20
15.119000000000002
30
0
40
0.35000000000000003
0
CIRCLE
8
drills_PTH
10
11.689
20
15.119000000000002
30
0
40
0.35000000000000003
0
CIRCLE
8
drills_PTH
10
9.909
20
15.119000000000002
30
0
40
0.35000000000000003
0
CIRCLE
8
drills_PTH
10
8.129
20
15.119000000000002
30
0
40
0.35000000000000003
0
CIRCLE
8
drills_PTH
10
7.239000000000001
20
4.439
30
0
40
0.35000000000000003
0
CIRCLE
8
drills_PTH
10
9.019
20
4.439
30
0
40
0.35000000000000003
0
CIRCLE
8
drills_PTH
10
10.799000000000001
20
4.439
30
0
40
0.35000000000000003
0
CIRCLE
8
drills_PTH
10
12.579
20
4.439
30
0
40
0.35000000000000003
0
CIRCLE
8
drills_PTH
10
14.359
20
4.439
30
0
40
0.35000000000000003
0
CIRCLE
8
drills_PTH
10
16.139
20
4.439
30
0
40
0.35000000000000003
0
CIRCLE
8
drills_PTH
10
17.919
20
4.439
30
0
40
0.35000000000000003
0
CIRCLE
8
drills_PTH
10
19.699
20
4.439
30
0
40
0.35000000000000003
0
CIRCLE
8
drills_via_1_16
10
21.209
20
17.78
30
0
40
0.17500000000000002
0
CIRCLE
8
drills_via_1_16
10
2.794
20
9.144
30
0
40
0.17500000000000002
0
CIRCLE
8
drills_via_1_16
10
7.8740000000000006
20
18.034000000000002
30
0
40
0.17500000000000002
0
ENDSEC
0
EOF